<svg width="271" height="17" viewBox="0 0 271 17" fill="none" xmlns="http://www.w3.org/2000/svg">
<path d="M0.128375 13V1.202H1.72638V13H0.128375ZM1.21638 7.815V6.353H7.37038V7.815H1.21638ZM1.21638 2.664V1.202H7.65938V2.664H1.21638ZM9.50228 13V4.925H11.0323V13H9.50228ZM10.2673 3.31C9.98395 3.31 9.75161 3.21933 9.57028 3.038C9.38895 2.84533 9.29828 2.60733 9.29828 2.324C9.29828 2.052 9.38895 1.82533 9.57028 1.644C9.75161 1.45133 9.98395 1.355 10.2673 1.355C10.5506 1.355 10.7829 1.45133 10.9643 1.644C11.1456 1.82533 11.2363 2.052 11.2363 2.324C11.2363 2.60733 11.1456 2.84533 10.9643 3.038C10.7829 3.21933 10.5506 3.31 10.2673 3.31ZM18.999 13V8.291C18.999 7.679 18.8064 7.17467 18.421 6.778C18.0357 6.38133 17.537 6.183 16.925 6.183C16.517 6.183 16.1544 6.27367 15.837 6.455C15.5197 6.63633 15.2704 6.88567 15.089 7.203C14.9077 7.52033 14.817 7.883 14.817 8.291L14.188 7.934C14.188 7.322 14.324 6.778 14.596 6.302C14.868 5.826 15.2477 5.452 15.735 5.18C16.2224 4.89667 16.772 4.755 17.384 4.755C17.996 4.755 18.5344 4.908 18.999 5.214C19.475 5.52 19.849 5.92233 20.121 6.421C20.393 6.90833 20.529 7.42967 20.529 7.985V13H18.999ZM13.287 13V4.925H14.817V13H13.287ZM26.0175 13.17C25.2695 13.17 24.6008 12.9887 24.0115 12.626C23.4222 12.252 22.9518 11.7477 22.6005 11.113C22.2605 10.4783 22.0905 9.76433 22.0905 8.971C22.0905 8.17767 22.2605 7.46367 22.6005 6.829C22.9518 6.19433 23.4222 5.69 24.0115 5.316C24.6008 4.942 25.2695 4.755 26.0175 4.755C26.6182 4.755 27.1622 4.88533 27.6495 5.146C28.1368 5.39533 28.5278 5.74667 28.8225 6.2C29.1285 6.642 29.2985 7.15767 29.3325 7.747V10.178C29.2985 10.756 29.1342 11.2717 28.8395 11.725C28.5448 12.1783 28.1538 12.5353 27.6665 12.796C27.1792 13.0453 26.6295 13.17 26.0175 13.17ZM26.2725 11.725C26.7825 11.725 27.2245 11.606 27.5985 11.368C27.9838 11.13 28.2842 10.807 28.4995 10.399C28.7148 9.97967 28.8225 9.50367 28.8225 8.971C28.8225 8.41567 28.7092 7.934 28.4825 7.526C28.2672 7.118 27.9668 6.795 27.5815 6.557C27.2075 6.319 26.7655 6.2 26.2555 6.2C25.7455 6.2 25.2978 6.319 24.9125 6.557C24.5272 6.795 24.2212 7.12367 23.9945 7.543C23.7792 7.951 23.6715 8.42133 23.6715 8.954C23.6715 9.498 23.7792 9.97967 23.9945 10.399C24.2212 10.807 24.5272 11.13 24.9125 11.368C25.3092 11.606 25.7625 11.725 26.2725 11.725ZM30.2675 13H28.7205V10.824L29.0095 8.852L28.7205 6.897V0.861999H30.2675V13ZM39.7202 13.17C38.9268 13.17 38.2128 12.983 37.5782 12.609C36.9435 12.235 36.4392 11.7307 36.0652 11.096C35.6912 10.45 35.5042 9.73033 35.5042 8.937C35.5042 8.155 35.6912 7.45233 36.0652 6.829C36.4392 6.19433 36.9435 5.69 37.5782 5.316C38.2128 4.942 38.9268 4.755 39.7202 4.755C40.5022 4.755 41.2105 4.942 41.8452 5.316C42.4912 5.67867 43.0012 6.17733 43.3752 6.812C43.7492 7.44667 43.9362 8.155 43.9362 8.937C43.9362 9.73033 43.7492 10.45 43.3752 11.096C43.0012 11.7307 42.4912 12.235 41.8452 12.609C41.2105 12.983 40.5022 13.17 39.7202 13.17ZM39.7202 11.691C40.2302 11.691 40.6835 11.572 41.0802 11.334C41.4768 11.096 41.7885 10.773 42.0152 10.365C42.2418 9.94567 42.3552 9.46967 42.3552 8.937C42.3552 8.41567 42.2362 7.951 41.9982 7.543C41.7715 7.135 41.4598 6.81767 41.0632 6.591C40.6778 6.353 40.2302 6.234 39.7202 6.234C39.2102 6.234 38.7568 6.353 38.3602 6.591C37.9635 6.81767 37.6518 7.135 37.4252 7.543C37.1985 7.951 37.0852 8.41567 37.0852 8.937C37.0852 9.46967 37.1985 9.94567 37.4252 10.365C37.6518 10.773 37.9635 11.096 38.3602 11.334C38.7568 11.572 39.2102 11.691 39.7202 11.691ZM48.9071 13.17C48.2498 13.17 47.6548 13.0227 47.1221 12.728C46.6008 12.422 46.1928 12.0027 45.8981 11.47C45.6034 10.9373 45.4561 10.3197 45.4561 9.617V4.925H46.9861V9.549C46.9861 9.991 47.0598 10.3763 47.2071 10.705C47.3658 11.0223 47.5924 11.266 47.8871 11.436C48.1818 11.606 48.5274 11.691 48.9241 11.691C49.5248 11.691 49.9951 11.504 50.3351 11.13C50.6751 10.7447 50.8451 10.2177 50.8451 9.549V4.925H52.3751V9.617C52.3751 10.3197 52.2278 10.9373 51.9331 11.47C51.6384 12.0027 51.2304 12.422 50.7091 12.728C50.1991 13.0227 49.5984 13.17 48.9071 13.17ZM55.6667 13V1.542H57.1967V13H55.6667ZM53.6777 6.319V4.925H59.1857V6.319H53.6777ZM69.9326 13V8.291C69.9326 7.679 69.74 7.17467 69.3546 6.778C68.9693 6.38133 68.4706 6.183 67.8586 6.183C67.4506 6.183 67.088 6.27367 66.7706 6.455C66.4533 6.63633 66.204 6.88567 66.0226 7.203C65.8413 7.52033 65.7506 7.883 65.7506 8.291L65.1216 7.934C65.1216 7.322 65.2576 6.778 65.5296 6.302C65.8016 5.826 66.1813 5.452 66.6686 5.18C67.156 4.89667 67.7056 4.755 68.3176 4.755C68.9296 4.755 69.468 4.891 69.9326 5.163C70.4086 5.435 70.7826 5.81467 71.0546 6.302C71.3266 6.78933 71.4626 7.35033 71.4626 7.985V13H69.9326ZM64.2206 13V0.861999H65.7506V13H64.2206ZM77.2231 13.17C76.4298 13.17 75.7158 12.983 75.0811 12.609C74.4464 12.235 73.9421 11.7307 73.5681 11.096C73.1941 10.45 73.0071 9.73033 73.0071 8.937C73.0071 8.155 73.1941 7.45233 73.5681 6.829C73.9421 6.19433 74.4464 5.69 75.0811 5.316C75.7158 4.942 76.4298 4.755 77.2231 4.755C78.0051 4.755 78.7134 4.942 79.3481 5.316C79.9941 5.67867 80.5041 6.17733 80.8781 6.812C81.2521 7.44667 81.4391 8.155 81.4391 8.937C81.4391 9.73033 81.2521 10.45 80.8781 11.096C80.5041 11.7307 79.9941 12.235 79.3481 12.609C78.7134 12.983 78.0051 13.17 77.2231 13.17ZM77.2231 11.691C77.7331 11.691 78.1864 11.572 78.5831 11.334C78.9798 11.096 79.2914 10.773 79.5181 10.365C79.7448 9.94567 79.8581 9.46967 79.8581 8.937C79.8581 8.41567 79.7391 7.951 79.5011 7.543C79.2744 7.135 78.9628 6.81767 78.5661 6.591C78.1808 6.353 77.7331 6.234 77.2231 6.234C76.7131 6.234 76.2598 6.353 75.8631 6.591C75.4664 6.81767 75.1548 7.135 74.9281 7.543C74.7014 7.951 74.5881 8.41567 74.5881 8.937C74.5881 9.46967 74.7014 9.94567 74.9281 10.365C75.1548 10.773 75.4664 11.096 75.8631 11.334C76.2598 11.572 76.7131 11.691 77.2231 11.691ZM85.2426 13L82.0466 4.925H83.6446L85.9566 11.215H85.4466L87.7416 4.925H88.6256L90.9206 11.215H90.4106L92.7226 4.925H94.3206L91.1416 13H90.2406L87.9116 6.897H88.4726L86.1266 13H85.2426ZM99.2167 13V4.925H100.747V13H99.2167ZM104.674 13V8.121C104.674 7.52033 104.487 7.05 104.113 6.71C103.75 6.35867 103.291 6.183 102.736 6.183C102.362 6.183 102.027 6.26233 101.733 6.421C101.438 6.57967 101.2 6.80067 101.019 7.084C100.837 7.36733 100.747 7.70733 100.747 8.104L100.118 7.798C100.118 7.186 100.248 6.65333 100.509 6.2C100.781 5.74667 101.149 5.39533 101.614 5.146C102.078 4.88533 102.6 4.755 103.178 4.755C103.744 4.755 104.254 4.87967 104.708 5.129C105.172 5.37833 105.535 5.72967 105.796 6.183C106.068 6.63633 106.204 7.17467 106.204 7.798V13H104.674ZM110.131 13V8.121C110.131 7.52033 109.944 7.05 109.57 6.71C109.207 6.35867 108.754 6.183 108.21 6.183C107.836 6.183 107.496 6.26233 107.19 6.421C106.895 6.57967 106.657 6.80067 106.476 7.084C106.294 7.36733 106.204 7.70733 106.204 8.104L105.337 7.798C105.371 7.17467 105.535 6.642 105.83 6.2C106.136 5.74667 106.527 5.39533 107.003 5.146C107.479 4.88533 108 4.755 108.567 4.755C109.156 4.755 109.683 4.87967 110.148 5.129C110.612 5.37833 110.981 5.72967 111.253 6.183C111.536 6.63633 111.678 7.18033 111.678 7.815V13H110.131ZM117.007 13.17C116.349 13.17 115.754 13.0227 115.222 12.728C114.7 12.422 114.292 12.0027 113.998 11.47C113.703 10.9373 113.556 10.3197 113.556 9.617V4.925H115.086V9.549C115.086 9.991 115.159 10.3763 115.307 10.705C115.465 11.0223 115.692 11.266 115.987 11.436C116.281 11.606 116.627 11.691 117.024 11.691C117.624 11.691 118.095 11.504 118.435 11.13C118.775 10.7447 118.945 10.2177 118.945 9.549V4.925H120.475V9.617C120.475 10.3197 120.327 10.9373 120.033 11.47C119.738 12.0027 119.33 12.422 118.809 12.728C118.299 13.0227 117.698 13.17 117.007 13.17ZM126.214 13.17C125.421 13.17 124.701 12.983 124.055 12.609C123.421 12.235 122.916 11.7307 122.542 11.096C122.18 10.45 121.998 9.736 121.998 8.954C121.998 8.16067 122.18 7.44667 122.542 6.812C122.916 6.17733 123.421 5.67867 124.055 5.316C124.701 4.942 125.421 4.755 126.214 4.755C126.838 4.755 127.416 4.874 127.948 5.112C128.481 5.33867 128.94 5.673 129.325 6.115L128.305 7.135C128.056 6.84033 127.75 6.61933 127.387 6.472C127.036 6.31333 126.645 6.234 126.214 6.234C125.704 6.234 125.251 6.353 124.854 6.591C124.458 6.81767 124.146 7.135 123.919 7.543C123.693 7.951 123.579 8.42133 123.579 8.954C123.579 9.48667 123.693 9.957 123.919 10.365C124.146 10.773 124.458 11.096 124.854 11.334C125.251 11.572 125.704 11.691 126.214 11.691C126.645 11.691 127.036 11.6173 127.387 11.47C127.75 11.3113 128.062 11.0847 128.322 10.79L129.325 11.81C128.951 12.2407 128.492 12.575 127.948 12.813C127.416 13.051 126.838 13.17 126.214 13.17ZM136.555 13V8.291C136.555 7.679 136.362 7.17467 135.977 6.778C135.591 6.38133 135.093 6.183 134.481 6.183C134.073 6.183 133.71 6.27367 133.393 6.455C133.075 6.63633 132.826 6.88567 132.645 7.203C132.463 7.52033 132.373 7.883 132.373 8.291L131.744 7.934C131.744 7.322 131.88 6.778 132.152 6.302C132.424 5.826 132.803 5.452 133.291 5.18C133.778 4.89667 134.328 4.755 134.94 4.755C135.552 4.755 136.09 4.891 136.555 5.163C137.031 5.435 137.405 5.81467 137.677 6.302C137.949 6.78933 138.085 7.35033 138.085 7.985V13H136.555ZM130.843 13V0.861999H132.373V13H130.843ZM146.344 13.068L142.842 4.925H144.542L147.143 11.3H146.599L149.336 4.925H151.036L147.262 13.068H146.344ZM144.032 16.383L146.412 11.504L147.262 13.068L145.732 16.383H144.032ZM155.665 13.17C154.872 13.17 154.158 12.983 153.523 12.609C152.889 12.235 152.384 11.7307 152.01 11.096C151.636 10.45 151.449 9.73033 151.449 8.937C151.449 8.155 151.636 7.45233 152.01 6.829C152.384 6.19433 152.889 5.69 153.523 5.316C154.158 4.942 154.872 4.755 155.665 4.755C156.447 4.755 157.156 4.942 157.79 5.316C158.436 5.67867 158.946 6.17733 159.32 6.812C159.694 7.44667 159.881 8.155 159.881 8.937C159.881 9.73033 159.694 10.45 159.32 11.096C158.946 11.7307 158.436 12.235 157.79 12.609C157.156 12.983 156.447 13.17 155.665 13.17ZM155.665 11.691C156.175 11.691 156.629 11.572 157.025 11.334C157.422 11.096 157.734 10.773 157.96 10.365C158.187 9.94567 158.3 9.46967 158.3 8.937C158.3 8.41567 158.181 7.951 157.943 7.543C157.717 7.135 157.405 6.81767 157.008 6.591C156.623 6.353 156.175 6.234 155.665 6.234C155.155 6.234 154.702 6.353 154.305 6.591C153.909 6.81767 153.597 7.135 153.37 7.543C153.144 7.951 153.03 8.41567 153.03 8.937C153.03 9.46967 153.144 9.94567 153.37 10.365C153.597 10.773 153.909 11.096 154.305 11.334C154.702 11.572 155.155 11.691 155.665 11.691ZM164.852 13.17C164.195 13.17 163.6 13.0227 163.067 12.728C162.546 12.422 162.138 12.0027 161.843 11.47C161.549 10.9373 161.401 10.3197 161.401 9.617V4.925H162.931V9.549C162.931 9.991 163.005 10.3763 163.152 10.705C163.311 11.0223 163.538 11.266 163.832 11.436C164.127 11.606 164.473 11.691 164.869 11.691C165.47 11.691 165.94 11.504 166.28 11.13C166.62 10.7447 166.79 10.2177 166.79 9.549V4.925H168.32V9.617C168.32 10.3197 168.173 10.9373 167.878 11.47C167.584 12.0027 167.176 12.422 166.654 12.728C166.144 13.0227 165.544 13.17 164.852 13.17ZM176.474 13.17C176.021 13.17 175.59 13.1133 175.182 13C174.785 12.8753 174.417 12.7053 174.077 12.49C173.737 12.2633 173.442 11.997 173.193 11.691L174.179 10.705C174.474 11.0677 174.814 11.3397 175.199 11.521C175.584 11.691 176.015 11.776 176.491 11.776C176.967 11.776 177.335 11.6967 177.596 11.538C177.857 11.368 177.987 11.1357 177.987 10.841C177.987 10.5463 177.879 10.3197 177.664 10.161C177.46 9.991 177.194 9.855 176.865 9.753C176.536 9.63967 176.185 9.532 175.811 9.43C175.448 9.31667 175.103 9.175 174.774 9.005C174.445 8.835 174.173 8.60267 173.958 8.308C173.754 8.01333 173.652 7.62233 173.652 7.135C173.652 6.64767 173.771 6.22833 174.009 5.877C174.247 5.51433 174.576 5.23667 174.995 5.044C175.426 4.85133 175.941 4.755 176.542 4.755C177.177 4.755 177.738 4.86833 178.225 5.095C178.724 5.31033 179.132 5.639 179.449 6.081L178.463 7.067C178.236 6.77233 177.953 6.54567 177.613 6.387C177.284 6.22833 176.91 6.149 176.491 6.149C176.049 6.149 175.709 6.22833 175.471 6.387C175.244 6.53433 175.131 6.744 175.131 7.016C175.131 7.288 175.233 7.49767 175.437 7.645C175.641 7.79233 175.907 7.917 176.236 8.019C176.576 8.121 176.927 8.22867 177.29 8.342C177.653 8.444 177.998 8.58567 178.327 8.767C178.656 8.94833 178.922 9.192 179.126 9.498C179.341 9.804 179.449 10.2063 179.449 10.705C179.449 11.4643 179.177 12.065 178.633 12.507C178.1 12.949 177.381 13.17 176.474 13.17ZM185.412 13.17C184.8 13.17 184.245 13.0453 183.746 12.796C183.259 12.5353 182.868 12.1783 182.573 11.725C182.278 11.2717 182.114 10.756 182.08 10.178V7.747C182.114 7.15767 182.278 6.642 182.573 6.2C182.879 5.74667 183.276 5.39533 183.763 5.146C184.262 4.88533 184.811 4.755 185.412 4.755C186.149 4.755 186.812 4.942 187.401 5.316C188.002 5.69 188.472 6.19433 188.812 6.829C189.152 7.46367 189.322 8.17767 189.322 8.971C189.322 9.76433 189.152 10.4783 188.812 11.113C188.472 11.7477 188.002 12.252 187.401 12.626C186.812 12.9887 186.149 13.17 185.412 13.17ZM185.157 11.725C185.667 11.725 186.115 11.606 186.5 11.368C186.885 11.13 187.191 10.807 187.418 10.399C187.645 9.97967 187.758 9.498 187.758 8.954C187.758 8.42133 187.645 7.94533 187.418 7.526C187.191 7.10667 186.885 6.78367 186.5 6.557C186.115 6.319 185.673 6.2 185.174 6.2C184.664 6.2 184.216 6.319 183.831 6.557C183.446 6.78367 183.145 7.10667 182.93 7.526C182.715 7.94533 182.607 8.427 182.607 8.971C182.607 9.50367 182.709 9.97967 182.913 10.399C183.128 10.807 183.429 11.13 183.814 11.368C184.211 11.606 184.658 11.725 185.157 11.725ZM181.162 16.383V4.925H182.692V7.05L182.403 9.005L182.692 10.977V16.383H181.162ZM194.797 13.17C193.992 13.17 193.267 12.9887 192.621 12.626C191.975 12.252 191.465 11.7477 191.091 11.113C190.717 10.4783 190.53 9.75867 190.53 8.954C190.53 8.16067 190.711 7.44667 191.074 6.812C191.448 6.17733 191.946 5.67867 192.57 5.316C193.204 4.942 193.913 4.755 194.695 4.755C195.443 4.755 196.1 4.925 196.667 5.265C197.245 5.605 197.692 6.07533 198.01 6.676C198.338 7.27667 198.503 7.95667 198.503 8.716C198.503 8.82933 198.497 8.954 198.486 9.09C198.474 9.21467 198.452 9.362 198.418 9.532H191.601V8.257H197.602L197.041 8.75C197.041 8.206 196.944 7.747 196.752 7.373C196.559 6.98767 196.287 6.693 195.936 6.489C195.584 6.27367 195.159 6.166 194.661 6.166C194.139 6.166 193.68 6.27933 193.284 6.506C192.887 6.73267 192.581 7.05 192.366 7.458C192.15 7.866 192.043 8.34767 192.043 8.903C192.043 9.46967 192.156 9.96833 192.383 10.399C192.609 10.8183 192.932 11.147 193.352 11.385C193.771 11.6117 194.253 11.725 194.797 11.725C195.25 11.725 195.664 11.6457 196.038 11.487C196.423 11.3283 196.752 11.0903 197.024 10.773L198.01 11.776C197.624 12.2293 197.148 12.575 196.582 12.813C196.026 13.051 195.431 13.17 194.797 13.17ZM205.883 13V8.291C205.883 7.679 205.69 7.17467 205.305 6.778C204.919 6.38133 204.421 6.183 203.809 6.183C203.401 6.183 203.038 6.27367 202.721 6.455C202.403 6.63633 202.154 6.88567 201.973 7.203C201.791 7.52033 201.701 7.883 201.701 8.291L201.072 7.934C201.072 7.322 201.208 6.778 201.48 6.302C201.752 5.826 202.131 5.452 202.619 5.18C203.106 4.89667 203.656 4.755 204.268 4.755C204.88 4.755 205.418 4.908 205.883 5.214C206.359 5.52 206.733 5.92233 207.005 6.421C207.277 6.90833 207.413 7.42967 207.413 7.985V13H205.883ZM200.171 13V4.925H201.701V13H200.171ZM212.901 13.17C212.153 13.17 211.485 12.9887 210.895 12.626C210.306 12.252 209.836 11.7477 209.484 11.113C209.144 10.4783 208.974 9.76433 208.974 8.971C208.974 8.17767 209.144 7.46367 209.484 6.829C209.836 6.19433 210.306 5.69 210.895 5.316C211.485 4.942 212.153 4.755 212.901 4.755C213.502 4.755 214.046 4.88533 214.533 5.146C215.021 5.39533 215.412 5.74667 215.706 6.2C216.012 6.642 216.182 7.15767 216.216 7.747V10.178C216.182 10.756 216.018 11.2717 215.723 11.725C215.429 12.1783 215.038 12.5353 214.55 12.796C214.063 13.0453 213.513 13.17 212.901 13.17ZM213.156 11.725C213.666 11.725 214.108 11.606 214.482 11.368C214.868 11.13 215.168 10.807 215.383 10.399C215.599 9.97967 215.706 9.50367 215.706 8.971C215.706 8.41567 215.593 7.934 215.366 7.526C215.151 7.118 214.851 6.795 214.465 6.557C214.091 6.319 213.649 6.2 213.139 6.2C212.629 6.2 212.182 6.319 211.796 6.557C211.411 6.795 211.105 7.12367 210.878 7.543C210.663 7.951 210.555 8.42133 210.555 8.954C210.555 9.498 210.663 9.97967 210.878 10.399C211.105 10.807 211.411 11.13 211.796 11.368C212.193 11.606 212.646 11.725 213.156 11.725ZM217.151 13H215.604V10.824L215.893 8.852L215.604 6.897V0.861999H217.151V13ZM226.604 13.17C225.811 13.17 225.097 12.983 224.462 12.609C223.827 12.235 223.323 11.7307 222.949 11.096C222.575 10.45 222.388 9.73033 222.388 8.937C222.388 8.155 222.575 7.45233 222.949 6.829C223.323 6.19433 223.827 5.69 224.462 5.316C225.097 4.942 225.811 4.755 226.604 4.755C227.386 4.755 228.094 4.942 228.729 5.316C229.375 5.67867 229.885 6.17733 230.259 6.812C230.633 7.44667 230.82 8.155 230.82 8.937C230.82 9.73033 230.633 10.45 230.259 11.096C229.885 11.7307 229.375 12.235 228.729 12.609C228.094 12.983 227.386 13.17 226.604 13.17ZM226.604 11.691C227.114 11.691 227.567 11.572 227.964 11.334C228.361 11.096 228.672 10.773 228.899 10.365C229.126 9.94567 229.239 9.46967 229.239 8.937C229.239 8.41567 229.12 7.951 228.882 7.543C228.655 7.135 228.344 6.81767 227.947 6.591C227.562 6.353 227.114 6.234 226.604 6.234C226.094 6.234 225.641 6.353 225.244 6.591C224.847 6.81767 224.536 7.135 224.309 7.543C224.082 7.951 223.969 8.41567 223.969 8.937C223.969 9.46967 224.082 9.94567 224.309 10.365C224.536 10.773 224.847 11.096 225.244 11.334C225.641 11.572 226.094 11.691 226.604 11.691ZM238.256 13V8.291C238.256 7.679 238.063 7.17467 237.678 6.778C237.293 6.38133 236.794 6.183 236.182 6.183C235.774 6.183 235.411 6.27367 235.094 6.455C234.777 6.63633 234.527 6.88567 234.346 7.203C234.165 7.52033 234.074 7.883 234.074 8.291L233.445 7.934C233.445 7.322 233.581 6.778 233.853 6.302C234.125 5.826 234.505 5.452 234.992 5.18C235.479 4.89667 236.029 4.755 236.641 4.755C237.253 4.755 237.791 4.908 238.256 5.214C238.732 5.52 239.106 5.92233 239.378 6.421C239.65 6.90833 239.786 7.42967 239.786 7.985V13H238.256ZM232.544 13V4.925H234.074V13H232.544ZM248.742 16.553C247.915 16.553 247.178 16.4 246.532 16.094C245.898 15.788 245.388 15.3573 245.002 14.802L245.988 13.799C246.317 14.2183 246.708 14.5357 247.161 14.751C247.615 14.9777 248.153 15.091 248.776 15.091C249.604 15.091 250.255 14.87 250.731 14.428C251.219 13.9973 251.462 13.4137 251.462 12.677V10.671L251.734 8.852L251.462 7.05V4.925H252.992V12.677C252.992 13.4477 252.811 14.122 252.448 14.7C252.097 15.278 251.598 15.7313 250.952 16.06C250.318 16.3887 249.581 16.553 248.742 16.553ZM248.742 12.864C248.006 12.864 247.343 12.6883 246.753 12.337C246.175 11.9857 245.716 11.504 245.376 10.892C245.036 10.2687 244.866 9.57167 244.866 8.801C244.866 8.03033 245.036 7.34467 245.376 6.744C245.716 6.132 246.175 5.65033 246.753 5.299C247.343 4.93633 248.006 4.755 248.742 4.755C249.377 4.755 249.938 4.87967 250.425 5.129C250.913 5.37833 251.298 5.72967 251.581 6.183C251.876 6.625 252.035 7.14633 252.057 7.747V9.889C252.023 10.4783 251.859 10.9997 251.564 11.453C251.281 11.895 250.896 12.2407 250.408 12.49C249.921 12.7393 249.366 12.864 248.742 12.864ZM249.048 11.419C249.547 11.419 249.983 11.3113 250.357 11.096C250.743 10.8807 251.037 10.5803 251.241 10.195C251.445 9.79833 251.547 9.33933 251.547 8.818C251.547 8.29667 251.44 7.84333 251.224 7.458C251.02 7.06133 250.731 6.75533 250.357 6.54C249.983 6.31333 249.541 6.2 249.031 6.2C248.521 6.2 248.074 6.31333 247.688 6.54C247.303 6.75533 246.997 7.06133 246.77 7.458C246.555 7.84333 246.447 8.291 246.447 8.801C246.447 9.311 246.555 9.76433 246.77 10.161C246.997 10.5577 247.303 10.8693 247.688 11.096C248.085 11.3113 248.538 11.419 249.048 11.419ZM258.672 13.17C257.936 13.17 257.267 12.9887 256.666 12.626C256.066 12.252 255.59 11.7477 255.238 11.113C254.898 10.4783 254.728 9.76433 254.728 8.971C254.728 8.17767 254.898 7.46367 255.238 6.829C255.59 6.19433 256.06 5.69 256.649 5.316C257.25 4.942 257.924 4.755 258.672 4.755C259.284 4.755 259.828 4.88533 260.304 5.146C260.792 5.39533 261.183 5.74667 261.477 6.2C261.772 6.642 261.936 7.15767 261.97 7.747V10.178C261.936 10.756 261.772 11.2717 261.477 11.725C261.194 12.1783 260.809 12.5353 260.321 12.796C259.845 13.0453 259.296 13.17 258.672 13.17ZM258.927 11.725C259.687 11.725 260.299 11.47 260.763 10.96C261.228 10.4387 261.46 9.77567 261.46 8.971C261.46 8.41567 261.353 7.934 261.137 7.526C260.933 7.10667 260.639 6.78367 260.253 6.557C259.868 6.319 259.42 6.2 258.91 6.2C258.4 6.2 257.947 6.319 257.55 6.557C257.165 6.795 256.859 7.12367 256.632 7.543C256.417 7.951 256.309 8.42133 256.309 8.954C256.309 9.498 256.417 9.97967 256.632 10.399C256.859 10.807 257.171 11.13 257.567 11.368C257.964 11.606 258.417 11.725 258.927 11.725ZM261.358 13V10.824L261.647 8.852L261.358 6.897V4.925H262.905V13H261.358ZM267.7 13.17C267.246 13.17 266.816 13.1133 266.408 13C266.011 12.8753 265.643 12.7053 265.303 12.49C264.963 12.2633 264.668 11.997 264.419 11.691L265.405 10.705C265.699 11.0677 266.039 11.3397 266.425 11.521C266.81 11.691 267.241 11.776 267.717 11.776C268.193 11.776 268.561 11.6967 268.822 11.538C269.082 11.368 269.213 11.1357 269.213 10.841C269.213 10.5463 269.105 10.3197 268.89 10.161C268.686 9.991 268.419 9.855 268.091 9.753C267.762 9.63967 267.411 9.532 267.037 9.43C266.674 9.31667 266.328 9.175 266 9.005C265.671 8.835 265.399 8.60267 265.184 8.308C264.98 8.01333 264.878 7.62233 264.878 7.135C264.878 6.64767 264.997 6.22833 265.235 5.877C265.473 5.51433 265.801 5.23667 266.221 5.044C266.651 4.85133 267.167 4.755 267.768 4.755C268.402 4.755 268.963 4.86833 269.451 5.095C269.949 5.31033 270.357 5.639 270.675 6.081L269.689 7.067C269.462 6.77233 269.179 6.54567 268.839 6.387C268.51 6.22833 268.136 6.149 267.717 6.149C267.275 6.149 266.935 6.22833 266.697 6.387C266.47 6.53433 266.357 6.744 266.357 7.016C266.357 7.288 266.459 7.49767 266.663 7.645C266.867 7.79233 267.133 7.917 267.462 8.019C267.802 8.121 268.153 8.22867 268.516 8.342C268.878 8.444 269.224 8.58567 269.553 8.767C269.881 8.94833 270.148 9.192 270.352 9.498C270.567 9.804 270.675 10.2063 270.675 10.705C270.675 11.4643 270.403 12.065 269.859 12.507C269.326 12.949 268.606 13.17 267.7 13.17Z" fill="#22577A"/>
</svg>
