<svg width="316" height="291" viewBox="0 0 316 291" fill="none" xmlns="http://www.w3.org/2000/svg">
<g filter="url(#filter0_d_36_10)">
<mask id="path-1-outside-1_36_10" maskUnits="userSpaceOnUse" x="0" y="0" width="316" height="286" fill="black">
<rect fill="white" width="316" height="286"/>
<path d="M1 16C1 7.71572 7.71573 1 16 1H300C308.284 1 315 7.71573 315 16V271C315 279.284 308.284 286 300 286H16C7.71572 286 1 279.284 1 271V16Z"/>
</mask>
<path d="M1 16C1 7.71572 7.71573 1 16 1H300C308.284 1 315 7.71573 315 16V271C315 279.284 308.284 286 300 286H16C7.71572 286 1 279.284 1 271V16Z" fill="white"/>
<path d="M0 16C0 7.16344 7.16344 0 16 0H300C308.837 0 316 7.16344 316 16H314C314 8.26801 307.732 2 300 2H16C8.26801 2 2 8.26801 2 16H0ZM315 286H1H315ZM16 286C7.16344 286 0 278.837 0 270V16C0 7.16344 7.16344 0 16 0V2C8.26801 2 2 8.26801 2 16V271C2 279.284 8.26801 286 16 286ZM300 0C308.837 0 316 7.16344 316 16V270C316 278.837 308.837 286 300 286C307.732 286 314 279.284 314 271V16C314 8.26801 307.732 2 300 2V0Z" fill="#EEEEEE" mask="url(#path-1-outside-1_36_10)"/>
</g>
<defs>
<filter id="filter0_d_36_10" x="0" y="0" width="316" height="291" filterUnits="userSpaceOnUse" color-interpolation-filters="sRGB">
<feFlood flood-opacity="0" result="BackgroundImageFix"/>
<feColorMatrix in="SourceAlpha" type="matrix" values="0 0 0 0 0 0 0 0 0 0 0 0 0 0 0 0 0 0 127 0" result="hardAlpha"/>
<feMorphology radius="3" operator="erode" in="SourceAlpha" result="effect1_dropShadow_36_10"/>
<feOffset dy="5"/>
<feGaussianBlur stdDeviation="1.5"/>
<feComposite in2="hardAlpha" operator="out"/>
<feColorMatrix type="matrix" values="0 0 0 0 0 0 0 0 0 0 0 0 0 0 0 0 0 0 0.25 0"/>
<feBlend mode="normal" in2="BackgroundImageFix" result="effect1_dropShadow_36_10"/>
<feBlend mode="normal" in="SourceGraphic" in2="effect1_dropShadow_36_10" result="shape"/>
</filter>
</defs>
</svg>
