<svg width="294" height="59" viewBox="0 0 294 59" fill="none" xmlns="http://www.w3.org/2000/svg">
<rect width="294" height="59" rx="29.5" fill="#57CC99"/>
<path d="M87.3602 28.54C87.1336 28.1667 86.8202 27.88 86.4202 27.68C86.0336 27.48 85.5736 27.38 85.0402 27.38C84.0536 27.38 83.2736 27.7 82.7002 28.34C82.1402 28.98 81.8602 29.84 81.8602 30.92C81.8602 32.1333 82.1602 33.06 82.7602 33.7C83.3736 34.3267 84.2602 34.64 85.4202 34.64C86.7936 34.64 87.7736 34.02 88.3602 32.78H84.4202V29.96H91.7402V33.76C91.4336 34.5067 90.9802 35.2067 90.3802 35.86C89.7936 36.5133 89.0469 37.0533 88.1402 37.48C87.2336 37.8933 86.2002 38.1 85.0402 38.1C83.6269 38.1 82.3736 37.8 81.2802 37.2C80.2002 36.5867 79.3602 35.74 78.7602 34.66C78.1736 33.5667 77.8802 32.32 77.8802 30.92C77.8802 29.5333 78.1736 28.3 78.7602 27.22C79.3602 26.1267 80.2002 25.28 81.2802 24.68C82.3602 24.0667 83.6069 23.76 85.0202 23.76C86.7936 23.76 88.2602 24.1867 89.4202 25.04C90.5802 25.8933 91.3002 27.06 91.5802 28.54H87.3602ZM98.117 27.04V29.34H102.617V32.32H98.117V34.86H103.217V38H94.197V23.9H103.217V27.04H98.117ZM116.474 23.9V27.02H112.714V38H108.794V27.02H105.074V23.9H116.474ZM128.472 38.14C126.832 38.14 125.486 37.7533 124.432 36.98C123.379 36.1933 122.812 35.0733 122.732 33.62H126.912C126.952 34.1133 127.099 34.4733 127.352 34.7C127.606 34.9267 127.932 35.04 128.332 35.04C128.692 35.04 128.986 34.9533 129.212 34.78C129.452 34.5933 129.572 34.34 129.572 34.02C129.572 33.6067 129.379 33.2867 128.992 33.06C128.606 32.8333 127.979 32.58 127.112 32.3C126.192 31.9933 125.446 31.7 124.872 31.42C124.312 31.1267 123.819 30.7067 123.392 30.16C122.979 29.6 122.772 28.8733 122.772 27.98C122.772 27.0733 122.999 26.3 123.452 25.66C123.906 25.0067 124.532 24.5133 125.332 24.18C126.132 23.8467 127.039 23.68 128.052 23.68C129.692 23.68 130.999 24.0667 131.972 24.84C132.959 25.6 133.486 26.6733 133.552 28.06H129.292C129.279 27.6333 129.146 27.3133 128.892 27.1C128.652 26.8867 128.339 26.78 127.952 26.78C127.659 26.78 127.419 26.8667 127.232 27.04C127.046 27.2133 126.952 27.46 126.952 27.78C126.952 28.0467 127.052 28.28 127.252 28.48C127.466 28.6667 127.726 28.8333 128.032 28.98C128.339 29.1133 128.792 29.2867 129.392 29.5C130.286 29.8067 131.019 30.1133 131.592 30.42C132.179 30.7133 132.679 31.1333 133.092 31.68C133.519 32.2133 133.732 32.8933 133.732 33.72C133.732 34.56 133.519 35.3133 133.092 35.98C132.679 36.6467 132.072 37.1733 131.272 37.56C130.486 37.9467 129.552 38.14 128.472 38.14ZM146.875 23.9V27.02H143.115V38H139.195V27.02H135.475V23.9H146.875ZM157.945 35.7H152.945L152.185 38H148.065L153.205 23.9H157.725L162.845 38H158.705L157.945 35.7ZM156.965 32.7L155.445 28.14L153.945 32.7H156.965ZM171.963 38L169.163 32.8H168.743V38H164.823V23.9H171.003C172.136 23.9 173.096 24.1 173.883 24.5C174.669 24.8867 175.263 25.4267 175.663 26.12C176.063 26.8 176.263 27.5667 176.263 28.42C176.263 29.38 175.996 30.2267 175.463 30.96C174.943 31.68 174.176 32.1933 173.163 32.5L176.343 38H171.963ZM168.743 30.12H170.683C171.216 30.12 171.616 29.9933 171.883 29.74C172.149 29.4867 172.283 29.12 172.283 28.64C172.283 28.1867 172.143 27.8333 171.863 27.58C171.596 27.3133 171.203 27.18 170.683 27.18H168.743V30.12ZM189.365 23.9V27.02H185.605V38H181.685V27.02H177.965V23.9H189.365ZM195.436 27.04V29.34H199.936V32.32H195.436V34.86H200.536V38H191.516V23.9H200.536V27.04H195.436ZM208.753 23.9C210.233 23.9 211.526 24.2 212.633 24.8C213.753 25.3867 214.613 26.2133 215.213 27.28C215.813 28.3467 216.113 29.5667 216.113 30.94C216.113 32.3 215.806 33.5133 215.193 34.58C214.593 35.6467 213.733 36.4867 212.613 37.1C211.506 37.7 210.219 38 208.753 38H203.173V23.9H208.753ZM208.453 34.54C209.599 34.54 210.499 34.2267 211.153 33.6C211.806 32.9733 212.133 32.0867 212.133 30.94C212.133 29.78 211.806 28.8867 211.153 28.26C210.499 27.62 209.599 27.3 208.453 27.3H207.093V34.54H208.453Z" fill="white"/>
</svg>
