<svg width="81" height="15" viewBox="0 0 81 15" fill="none" xmlns="http://www.w3.org/2000/svg">
<path d="M6.76411 4.098C6.76411 4.91 6.48411 5.58667 5.92411 6.128C5.37344 6.66 4.52878 6.926 3.39011 6.926H1.51411V11H0.240109V1.242H3.39011C4.49144 1.242 5.32678 1.508 5.89611 2.04C6.47478 2.572 6.76411 3.258 6.76411 4.098ZM3.39011 5.876C4.09944 5.876 4.62211 5.722 4.95811 5.414C5.29411 5.106 5.46211 4.66733 5.46211 4.098C5.46211 2.894 4.77144 2.292 3.39011 2.292H1.51411V5.876H3.39011ZM11.6935 11.126C10.9749 11.126 10.3215 10.9627 9.73353 10.636C9.15486 10.3093 8.69753 9.84733 8.36153 9.25C8.03486 8.64333 7.87153 7.94333 7.87153 7.15C7.87153 6.366 8.03953 5.67533 8.37553 5.078C8.72086 4.47133 9.18753 4.00933 9.77553 3.692C10.3635 3.36533 11.0215 3.202 11.7495 3.202C12.4775 3.202 13.1355 3.36533 13.7235 3.692C14.3115 4.00933 14.7735 4.46667 15.1095 5.064C15.4549 5.66133 15.6275 6.35667 15.6275 7.15C15.6275 7.94333 15.4502 8.64333 15.0955 9.25C14.7502 9.84733 14.2789 10.3093 13.6815 10.636C13.0842 10.9627 12.4215 11.126 11.6935 11.126ZM11.6935 10.006C12.1509 10.006 12.5802 9.89867 12.9815 9.684C13.3829 9.46933 13.7049 9.14733 13.9475 8.718C14.1995 8.28867 14.3255 7.766 14.3255 7.15C14.3255 6.534 14.2042 6.01133 13.9615 5.582C13.7189 5.15267 13.4015 4.83533 13.0095 4.63C12.6175 4.41533 12.1929 4.308 11.7355 4.308C11.2689 4.308 10.8395 4.41533 10.4475 4.63C10.0649 4.83533 9.75686 5.15267 9.52353 5.582C9.2902 6.01133 9.17353 6.534 9.17353 7.15C9.17353 7.77533 9.28553 8.30267 9.50953 8.732C9.74286 9.16133 10.0509 9.48333 10.4335 9.698C10.8162 9.90333 11.2362 10.006 11.6935 10.006ZM27.5226 3.328L25.1286 11H23.8126L21.9646 4.91L20.1166 11H18.8006L16.3926 3.328H17.6946L19.4586 9.768L21.3626 3.328H22.6646L24.5266 9.782L26.2626 3.328H27.5226ZM35.787 6.87C35.787 7.11267 35.773 7.36933 35.745 7.64H29.613C29.6597 8.396 29.9163 8.98867 30.383 9.418C30.859 9.838 31.433 10.048 32.105 10.048C32.6557 10.048 33.113 9.922 33.477 9.67C33.8503 9.40867 34.1117 9.06333 34.261 8.634H35.633C35.4277 9.37133 35.017 9.97333 34.401 10.44C33.785 10.8973 33.0197 11.126 32.105 11.126C31.377 11.126 30.7237 10.9627 30.145 10.636C29.5757 10.3093 29.1277 9.84733 28.801 9.25C28.4743 8.64333 28.311 7.94333 28.311 7.15C28.311 6.35667 28.4697 5.66133 28.787 5.064C29.1043 4.46667 29.5477 4.00933 30.117 3.692C30.6957 3.36533 31.3583 3.202 32.105 3.202C32.833 3.202 33.477 3.36067 34.037 3.678C34.597 3.99533 35.0263 4.434 35.325 4.994C35.633 5.54467 35.787 6.17 35.787 6.87ZM34.471 6.604C34.471 6.11867 34.3637 5.70333 34.149 5.358C33.9343 5.00333 33.6403 4.73733 33.267 4.56C32.903 4.37333 32.497 4.28 32.049 4.28C31.405 4.28 30.8543 4.48533 30.397 4.896C29.949 5.30667 29.6923 5.876 29.627 6.604H34.471ZM38.7426 4.574C38.9666 4.13533 39.284 3.79467 39.6946 3.552C40.1146 3.30933 40.6233 3.188 41.2206 3.188V4.504H40.8846C39.4566 4.504 38.7426 5.27867 38.7426 6.828V11H37.4686V3.328H38.7426V4.574ZM49.6913 6.87C49.6913 7.11267 49.6773 7.36933 49.6493 7.64H43.5173C43.5639 8.396 43.8206 8.98867 44.2873 9.418C44.7633 9.838 45.3373 10.048 46.0093 10.048C46.5599 10.048 47.0173 9.922 47.3813 9.67C47.7546 9.40867 48.0159 9.06333 48.1653 8.634H49.5373C49.3319 9.37133 48.9213 9.97333 48.3053 10.44C47.6893 10.8973 46.9239 11.126 46.0093 11.126C45.2813 11.126 44.6279 10.9627 44.0493 10.636C43.4799 10.3093 43.0319 9.84733 42.7053 9.25C42.3786 8.64333 42.2153 7.94333 42.2153 7.15C42.2153 6.35667 42.3739 5.66133 42.6913 5.064C43.0086 4.46667 43.4519 4.00933 44.0213 3.692C44.5999 3.36533 45.2626 3.202 46.0093 3.202C46.7373 3.202 47.3813 3.36067 47.9413 3.678C48.5013 3.99533 48.9306 4.434 49.2293 4.994C49.5373 5.54467 49.6913 6.17 49.6913 6.87ZM48.3753 6.604C48.3753 6.11867 48.2679 5.70333 48.0533 5.358C47.8386 5.00333 47.5446 4.73733 47.1713 4.56C46.8073 4.37333 46.4013 4.28 45.9533 4.28C45.3093 4.28 44.7586 4.48533 44.3013 4.896C43.8533 5.30667 43.5966 5.876 43.5313 6.604H48.3753ZM50.8969 7.136C50.8969 6.352 51.0556 5.666 51.3729 5.078C51.6903 4.48067 52.1243 4.01867 52.6749 3.692C53.2349 3.36533 53.8603 3.202 54.5509 3.202C55.1483 3.202 55.7036 3.342 56.2169 3.622C56.7303 3.89267 57.1223 4.252 57.3929 4.7V0.64H58.6809V11H57.3929V9.558C57.1409 10.0153 56.7676 10.3933 56.2729 10.692C55.7783 10.9813 55.1996 11.126 54.5369 11.126C53.8556 11.126 53.2349 10.958 52.6749 10.622C52.1243 10.286 51.6903 9.81467 51.3729 9.208C51.0556 8.60133 50.8969 7.91067 50.8969 7.136ZM57.3929 7.15C57.3929 6.57133 57.2763 6.06733 57.0429 5.638C56.8096 5.20867 56.4923 4.882 56.0909 4.658C55.6989 4.42467 55.2649 4.308 54.7889 4.308C54.3129 4.308 53.8789 4.42 53.4869 4.644C53.0949 4.868 52.7823 5.19467 52.5489 5.624C52.3156 6.05333 52.1989 6.55733 52.1989 7.136C52.1989 7.724 52.3156 8.23733 52.5489 8.676C52.7823 9.10533 53.0949 9.43667 53.4869 9.67C53.8789 9.894 54.3129 10.006 54.7889 10.006C55.2649 10.006 55.6989 9.894 56.0909 9.67C56.4923 9.43667 56.8096 9.10533 57.0429 8.676C57.2763 8.23733 57.3929 7.72867 57.3929 7.15ZM65.8403 4.756C66.1016 4.29867 66.4843 3.92533 66.9883 3.636C67.4923 3.34667 68.0663 3.202 68.7103 3.202C69.4009 3.202 70.0216 3.36533 70.5723 3.692C71.1229 4.01867 71.5569 4.48067 71.8743 5.078C72.1916 5.666 72.3503 6.352 72.3503 7.136C72.3503 7.91067 72.1916 8.60133 71.8743 9.208C71.5569 9.81467 71.1183 10.286 70.5583 10.622C70.0076 10.958 69.3916 11.126 68.7103 11.126C68.0476 11.126 67.4643 10.9813 66.9603 10.692C66.4656 10.4027 66.0923 10.034 65.8403 9.586V11H64.5663V0.64H65.8403V4.756ZM71.0483 7.136C71.0483 6.55733 70.9316 6.05333 70.6983 5.624C70.4649 5.19467 70.1476 4.868 69.7463 4.644C69.3543 4.42 68.9203 4.308 68.4443 4.308C67.9776 4.308 67.5436 4.42467 67.1423 4.658C66.7503 4.882 66.4329 5.21333 66.1903 5.652C65.9569 6.08133 65.8403 6.58067 65.8403 7.15C65.8403 7.72867 65.9569 8.23733 66.1903 8.676C66.4329 9.10533 66.7503 9.43667 67.1423 9.67C67.5436 9.894 67.9776 10.006 68.4443 10.006C68.9203 10.006 69.3543 9.894 69.7463 9.67C70.1476 9.43667 70.4649 9.10533 70.6983 8.676C70.9316 8.23733 71.0483 7.724 71.0483 7.136ZM80.6352 3.328L76.0152 14.612H74.6992L76.2112 10.916L73.1172 3.328H74.5312L76.9392 9.544L79.3192 3.328H80.6352Z" fill="black"/>
</svg>
