<svg width="294" height="59" viewBox="0 0 294 59" fill="none" xmlns="http://www.w3.org/2000/svg">
<rect width="294" height="59" rx="29.5" fill="#57CC99"/>
<path d="M119.566 34H123.946V37H115.646V22.9H119.566V34ZM132.93 37.14C131.61 37.14 130.397 36.8333 129.29 36.22C128.183 35.5933 127.303 34.7333 126.65 33.64C126.01 32.5333 125.69 31.2867 125.69 29.9C125.69 28.5133 126.01 27.2733 126.65 26.18C127.303 25.0733 128.183 24.2133 129.29 23.6C130.397 22.9867 131.61 22.68 132.93 22.68C134.263 22.68 135.477 22.9867 136.57 23.6C137.677 24.2133 138.55 25.0733 139.19 26.18C139.83 27.2733 140.15 28.5133 140.15 29.9C140.15 31.2867 139.83 32.5333 139.19 33.64C138.55 34.7333 137.677 35.5933 136.57 36.22C135.463 36.8333 134.25 37.14 132.93 37.14ZM132.93 33.5C133.93 33.5 134.717 33.1733 135.29 32.52C135.877 31.8667 136.17 30.9933 136.17 29.9C136.17 28.78 135.877 27.9 135.29 27.26C134.717 26.6067 133.93 26.28 132.93 26.28C131.917 26.28 131.123 26.6067 130.55 27.26C129.977 27.9 129.69 28.78 129.69 29.9C129.69 31.0067 129.977 31.8867 130.55 32.54C131.123 33.18 131.917 33.5 132.93 33.5ZM151.612 27.54C151.386 27.1667 151.072 26.88 150.672 26.68C150.286 26.48 149.826 26.38 149.292 26.38C148.306 26.38 147.526 26.7 146.952 27.34C146.392 27.98 146.112 28.84 146.112 29.92C146.112 31.1333 146.412 32.06 147.012 32.7C147.626 33.3267 148.512 33.64 149.672 33.64C151.046 33.64 152.026 33.02 152.612 31.78H148.672V28.96H155.992V32.76C155.686 33.5067 155.232 34.2067 154.632 34.86C154.046 35.5133 153.299 36.0533 152.392 36.48C151.486 36.8933 150.452 37.1 149.292 37.1C147.879 37.1 146.626 36.8 145.532 36.2C144.452 35.5867 143.612 34.74 143.012 33.66C142.426 32.5667 142.132 31.32 142.132 29.92C142.132 28.5333 142.426 27.3 143.012 26.22C143.612 25.1267 144.452 24.28 145.532 23.68C146.612 23.0667 147.859 22.76 149.272 22.76C151.046 22.76 152.512 23.1867 153.672 24.04C154.832 24.8933 155.552 26.06 155.832 27.54H151.612ZM162.369 22.9V37H158.449V22.9H162.369ZM178.361 37H174.441L169.221 29.12V37H165.301V22.9H169.221L174.441 30.88V22.9H178.361V37Z" fill="white"/>
</svg>
