<svg width="302" height="70" viewBox="0 0 302 70" fill="none" xmlns="http://www.w3.org/2000/svg">
<g filter="url(#filter0_d_33_104)">
<path d="M4 16C4 7.71573 10.7157 1 19 1H283C291.284 1 298 7.71573 298 16V49C298 57.2843 291.284 64 283 64H19C10.7157 64 4 57.2843 4 49V16Z" fill="white"/>
<path d="M80.52 40.2C79.3867 40.2 78.4133 40.0067 77.6 39.62C76.8 39.2333 76.0733 38.6533 75.42 37.88L77.22 36.08C77.6333 36.6267 78.1133 37.0533 78.66 37.36C79.2067 37.6533 79.8733 37.8 80.66 37.8C81.3667 37.8 81.9267 37.66 82.34 37.38C82.7667 37.1 82.98 36.7133 82.98 36.22C82.98 35.7933 82.86 35.4467 82.62 35.18C82.38 34.9133 82.06 34.6867 81.66 34.5C81.2733 34.3133 80.84 34.1467 80.36 34C79.8933 33.84 79.42 33.66 78.94 33.46C78.4733 33.26 78.04 33.0133 77.64 32.72C77.2533 32.4133 76.94 32.0267 76.7 31.56C76.46 31.08 76.34 30.48 76.34 29.76C76.34 28.9067 76.5467 28.18 76.96 27.58C77.3733 26.98 77.94 26.52 78.66 26.2C79.38 25.88 80.1933 25.72 81.1 25.72C82.06 25.72 82.9267 25.9 83.7 26.26C84.4733 26.62 85.1067 27.0867 85.6 27.66L83.8 29.46C83.3867 29.0067 82.96 28.6733 82.52 28.46C82.0933 28.2467 81.6067 28.14 81.06 28.14C80.4333 28.14 79.94 28.26 79.58 28.5C79.22 28.74 79.04 29.0867 79.04 29.54C79.04 29.9267 79.16 30.24 79.4 30.48C79.64 30.72 79.9533 30.9267 80.34 31.1C80.74 31.2733 81.1733 31.44 81.64 31.6C82.12 31.76 82.5933 31.94 83.06 32.14C83.54 32.34 83.9733 32.6 84.36 32.92C84.76 33.24 85.08 33.6533 85.32 34.16C85.56 34.6533 85.68 35.2667 85.68 36C85.68 37.3067 85.22 38.3333 84.3 39.08C83.38 39.8267 82.12 40.2 80.52 40.2ZM87.5467 40V30.34H90.1867V40H87.5467ZM88.8667 28.78C88.4401 28.78 88.0867 28.64 87.8067 28.36C87.5267 28.0667 87.3867 27.7067 87.3867 27.28C87.3867 26.8667 87.5267 26.5133 87.8067 26.22C88.0867 25.9267 88.4401 25.78 88.8667 25.78C89.3067 25.78 89.6601 25.9267 89.9267 26.22C90.2067 26.5133 90.3467 26.8667 90.3467 27.28C90.3467 27.7067 90.2067 28.0667 89.9267 28.36C89.6601 28.64 89.3067 28.78 88.8667 28.78ZM96.5477 44.28C95.521 44.28 94.6143 44.0933 93.8277 43.72C93.041 43.36 92.4143 42.8467 91.9477 42.18L93.6077 40.52C93.981 40.96 94.3943 41.2933 94.8477 41.52C95.3143 41.76 95.8743 41.88 96.5277 41.88C97.341 41.88 97.981 41.6733 98.4477 41.26C98.9277 40.8467 99.1677 40.2733 99.1677 39.54V37.12L99.6077 35L99.1877 32.88V30.34H101.788V39.5C101.788 40.46 101.561 41.2933 101.108 42C100.668 42.72 100.054 43.28 99.2677 43.68C98.481 44.08 97.5743 44.28 96.5477 44.28ZM96.4277 39.74C95.561 39.74 94.781 39.5333 94.0877 39.12C93.3943 38.6933 92.8477 38.1133 92.4477 37.38C92.061 36.6467 91.8677 35.8267 91.8677 34.92C91.8677 34.0133 92.061 33.2 92.4477 32.48C92.8477 31.76 93.3943 31.1933 94.0877 30.78C94.781 30.3533 95.561 30.14 96.4277 30.14C97.1477 30.14 97.781 30.28 98.3277 30.56C98.8877 30.84 99.3277 31.2267 99.6477 31.72C99.9677 32.2 100.141 32.7667 100.168 33.42V36.46C100.141 37.1 99.961 37.6733 99.6277 38.18C99.3077 38.6733 98.8677 39.06 98.3077 39.34C97.761 39.6067 97.1343 39.74 96.4277 39.74ZM96.9477 37.36C97.4277 37.36 97.841 37.26 98.1877 37.06C98.5477 36.8467 98.8277 36.56 99.0277 36.2C99.2277 35.8267 99.3277 35.4067 99.3277 34.94C99.3277 34.46 99.2277 34.04 99.0277 33.68C98.8277 33.32 98.5477 33.04 98.1877 32.84C97.841 32.6267 97.4277 32.52 96.9477 32.52C96.4677 32.52 96.0477 32.6267 95.6877 32.84C95.3277 33.04 95.0477 33.3267 94.8477 33.7C94.6477 34.06 94.5477 34.4733 94.5477 34.94C94.5477 35.3933 94.6477 35.8067 94.8477 36.18C95.0477 36.54 95.3277 36.8267 95.6877 37.04C96.0477 37.2533 96.4677 37.36 96.9477 37.36ZM110.59 40V34.46C110.59 33.8867 110.41 33.42 110.05 33.06C109.69 32.7 109.223 32.52 108.65 32.52C108.276 32.52 107.943 32.6 107.65 32.76C107.356 32.92 107.123 33.1467 106.95 33.44C106.79 33.7333 106.71 34.0733 106.71 34.46L105.69 33.94C105.69 33.18 105.85 32.52 106.17 31.96C106.503 31.3867 106.956 30.94 107.53 30.62C108.116 30.3 108.776 30.14 109.51 30.14C110.216 30.14 110.85 30.32 111.41 30.68C111.97 31.0267 112.41 31.4867 112.73 32.06C113.05 32.62 113.21 33.2267 113.21 33.88V40H110.59ZM104.09 40V30.34H106.71V40H104.09ZM119.226 40V30.34H121.866V40H119.226ZM120.546 28.78C120.12 28.78 119.766 28.64 119.486 28.36C119.206 28.0667 119.066 27.7067 119.066 27.28C119.066 26.8667 119.206 26.5133 119.486 26.22C119.766 25.9267 120.12 25.78 120.546 25.78C120.986 25.78 121.34 25.9267 121.606 26.22C121.886 26.5133 122.026 26.8667 122.026 27.28C122.026 27.7067 121.886 28.0667 121.606 28.36C121.34 28.64 120.986 28.78 120.546 28.78ZM130.687 40V34.46C130.687 33.8867 130.507 33.42 130.147 33.06C129.787 32.7 129.321 32.52 128.747 32.52C128.374 32.52 128.041 32.6 127.747 32.76C127.454 32.92 127.221 33.1467 127.047 33.44C126.887 33.7333 126.807 34.0733 126.807 34.46L125.787 33.94C125.787 33.18 125.947 32.52 126.267 31.96C126.601 31.3867 127.054 30.94 127.627 30.62C128.214 30.3 128.874 30.14 129.607 30.14C130.314 30.14 130.947 30.32 131.507 30.68C132.067 31.0267 132.507 31.4867 132.827 32.06C133.147 32.62 133.307 33.2267 133.307 33.88V40H130.687ZM124.187 40V30.34H126.807V40H124.187ZM141.904 40L138.284 30.34H140.924L143.284 37.36L142.484 37.38L144.904 30.34H146.804L149.224 37.38L148.424 37.36L150.784 30.34H153.424L149.824 40H147.924L145.484 33.32H146.224L143.784 40H141.904ZM154.539 40V30.34H157.179V40H154.539ZM155.859 28.78C155.432 28.78 155.079 28.64 154.799 28.36C154.519 28.0667 154.379 27.7067 154.379 27.28C154.379 26.8667 154.519 26.5133 154.799 26.22C155.079 25.9267 155.432 25.78 155.859 25.78C156.299 25.78 156.652 25.9267 156.919 26.22C157.199 26.5133 157.339 26.8667 157.339 27.28C157.339 27.7067 157.199 28.0667 156.919 28.36C156.652 28.64 156.299 28.78 155.859 28.78ZM160.92 40V26.32H163.54V40H160.92ZM158.66 32.64V30.34H165.8V32.64H158.66ZM173.773 40V34.46C173.773 33.8867 173.593 33.42 173.233 33.06C172.873 32.7 172.407 32.52 171.833 32.52C171.46 32.52 171.127 32.6 170.833 32.76C170.54 32.92 170.307 33.1467 170.133 33.44C169.973 33.7333 169.893 34.0733 169.893 34.46L168.873 33.94C168.873 33.18 169.033 32.52 169.353 31.96C169.673 31.3867 170.113 30.94 170.673 30.62C171.247 30.3 171.9 30.14 172.633 30.14C173.367 30.14 174.013 30.3 174.573 30.62C175.147 30.94 175.593 31.38 175.913 31.94C176.233 32.5 176.393 33.1467 176.393 33.88V40H173.773ZM167.273 40V25.54H169.893V40H167.273ZM189.19 40.2C188.19 40.2 187.25 40.02 186.37 39.66C185.503 39.2867 184.737 38.7667 184.07 38.1C183.417 37.4333 182.903 36.6667 182.53 35.8C182.17 34.92 181.99 33.9733 181.99 32.96C181.99 31.9333 182.177 30.9867 182.55 30.12C182.923 29.24 183.443 28.4733 184.11 27.82C184.777 27.1533 185.557 26.64 186.45 26.28C187.343 25.9067 188.31 25.72 189.35 25.72C190.51 25.72 191.577 25.94 192.55 26.38C193.523 26.8067 194.33 27.4133 194.97 28.2L193.13 30.04C192.69 29.4667 192.143 29.0267 191.49 28.72C190.837 28.4133 190.117 28.26 189.33 28.26C188.437 28.26 187.643 28.46 186.95 28.86C186.27 29.2467 185.737 29.7933 185.35 30.5C184.963 31.1933 184.77 32.0067 184.77 32.94C184.77 33.8733 184.957 34.7 185.33 35.42C185.717 36.1267 186.237 36.68 186.89 37.08C187.557 37.48 188.317 37.68 189.17 37.68C190.05 37.68 190.803 37.52 191.43 37.2C192.057 36.8667 192.537 36.3867 192.87 35.76C193.203 35.12 193.37 34.34 193.37 33.42L195.15 34.64L189.01 34.58V32.22H196.17V32.6C196.17 34.28 195.87 35.6867 195.27 36.82C194.67 37.94 193.843 38.7867 192.79 39.36C191.75 39.92 190.55 40.2 189.19 40.2ZM202.516 40.2C201.543 40.2 200.663 39.98 199.876 39.54C199.103 39.0867 198.483 38.48 198.016 37.72C197.563 36.9467 197.336 36.0867 197.336 35.14C197.336 34.1933 197.563 33.3467 198.016 32.6C198.47 31.84 199.09 31.24 199.876 30.8C200.663 30.3467 201.536 30.12 202.496 30.12C203.483 30.12 204.363 30.3467 205.136 30.8C205.923 31.24 206.543 31.84 206.996 32.6C207.45 33.3467 207.676 34.1933 207.676 35.14C207.676 36.0867 207.45 36.9467 206.996 37.72C206.543 38.48 205.923 39.0867 205.136 39.54C204.363 39.98 203.49 40.2 202.516 40.2ZM202.496 37.76C202.99 37.76 203.423 37.6533 203.796 37.44C204.183 37.2133 204.476 36.9067 204.676 36.52C204.89 36.12 204.996 35.6667 204.996 35.16C204.996 34.6533 204.89 34.2067 204.676 33.82C204.463 33.4333 204.17 33.1333 203.796 32.92C203.423 32.6933 202.99 32.58 202.496 32.58C202.016 32.58 201.59 32.6933 201.216 32.92C200.843 33.1333 200.55 33.4333 200.336 33.82C200.123 34.2067 200.016 34.6533 200.016 35.16C200.016 35.6667 200.123 36.12 200.336 36.52C200.55 36.9067 200.843 37.2133 201.216 37.44C201.59 37.6533 202.016 37.76 202.496 37.76ZM213.903 40.2C212.93 40.2 212.05 39.98 211.263 39.54C210.49 39.0867 209.87 38.48 209.403 37.72C208.95 36.9467 208.723 36.0867 208.723 35.14C208.723 34.1933 208.95 33.3467 209.403 32.6C209.856 31.84 210.476 31.24 211.263 30.8C212.05 30.3467 212.923 30.12 213.883 30.12C214.87 30.12 215.75 30.3467 216.523 30.8C217.31 31.24 217.93 31.84 218.383 32.6C218.836 33.3467 219.063 34.1933 219.063 35.14C219.063 36.0867 218.836 36.9467 218.383 37.72C217.93 38.48 217.31 39.0867 216.523 39.54C215.75 39.98 214.876 40.2 213.903 40.2ZM213.883 37.76C214.376 37.76 214.81 37.6533 215.183 37.44C215.57 37.2133 215.863 36.9067 216.063 36.52C216.276 36.12 216.383 35.6667 216.383 35.16C216.383 34.6533 216.276 34.2067 216.063 33.82C215.85 33.4333 215.556 33.1333 215.183 32.92C214.81 32.6933 214.376 32.58 213.883 32.58C213.403 32.58 212.976 32.6933 212.603 32.92C212.23 33.1333 211.936 33.4333 211.723 33.82C211.51 34.2067 211.403 34.6533 211.403 35.16C211.403 35.6667 211.51 36.12 211.723 36.52C211.936 36.9067 212.23 37.2133 212.603 37.44C212.976 37.6533 213.403 37.76 213.883 37.76ZM224.79 44.28C223.763 44.28 222.857 44.0933 222.07 43.72C221.283 43.36 220.657 42.8467 220.19 42.18L221.85 40.52C222.223 40.96 222.637 41.2933 223.09 41.52C223.557 41.76 224.117 41.88 224.77 41.88C225.583 41.88 226.223 41.6733 226.69 41.26C227.17 40.8467 227.41 40.2733 227.41 39.54V37.12L227.85 35L227.43 32.88V30.34H230.03V39.5C230.03 40.46 229.803 41.2933 229.35 42C228.91 42.72 228.297 43.28 227.51 43.68C226.723 44.08 225.817 44.28 224.79 44.28ZM224.67 39.74C223.803 39.74 223.023 39.5333 222.33 39.12C221.637 38.6933 221.09 38.1133 220.69 37.38C220.303 36.6467 220.11 35.8267 220.11 34.92C220.11 34.0133 220.303 33.2 220.69 32.48C221.09 31.76 221.637 31.1933 222.33 30.78C223.023 30.3533 223.803 30.14 224.67 30.14C225.39 30.14 226.023 30.28 226.57 30.56C227.13 30.84 227.57 31.2267 227.89 31.72C228.21 32.2 228.383 32.7667 228.41 33.42V36.46C228.383 37.1 228.203 37.6733 227.87 38.18C227.55 38.6733 227.11 39.06 226.55 39.34C226.003 39.6067 225.377 39.74 224.67 39.74ZM225.19 37.36C225.67 37.36 226.083 37.26 226.43 37.06C226.79 36.8467 227.07 36.56 227.27 36.2C227.47 35.8267 227.57 35.4067 227.57 34.94C227.57 34.46 227.47 34.04 227.27 33.68C227.07 33.32 226.79 33.04 226.43 32.84C226.083 32.6267 225.67 32.52 225.19 32.52C224.71 32.52 224.29 32.6267 223.93 32.84C223.57 33.04 223.29 33.3267 223.09 33.7C222.89 34.06 222.79 34.4733 222.79 34.94C222.79 35.3933 222.89 35.8067 223.09 36.18C223.29 36.54 223.57 36.8267 223.93 37.04C224.29 37.2533 224.71 37.36 225.19 37.36ZM232.332 40V25.54H234.952V40H232.332ZM241.893 40.2C240.88 40.2 239.98 39.9867 239.193 39.56C238.407 39.12 237.78 38.52 237.313 37.76C236.86 37 236.633 36.1333 236.633 35.16C236.633 34.2 236.853 33.3467 237.293 32.6C237.747 31.84 238.36 31.24 239.133 30.8C239.907 30.3467 240.767 30.12 241.713 30.12C242.647 30.12 243.467 30.3333 244.173 30.76C244.893 31.1733 245.453 31.7467 245.853 32.48C246.267 33.2 246.473 34.02 246.473 34.94C246.473 35.1133 246.46 35.2933 246.433 35.48C246.42 35.6533 246.387 35.8533 246.333 36.08L238.213 36.1V34.14L245.113 34.12L244.053 34.94C244.027 34.3667 243.92 33.8867 243.733 33.5C243.56 33.1133 243.3 32.82 242.953 32.62C242.62 32.4067 242.207 32.3 241.713 32.3C241.193 32.3 240.74 32.42 240.353 32.66C239.967 32.8867 239.667 33.2133 239.453 33.64C239.253 34.0533 239.153 34.5467 239.153 35.12C239.153 35.7067 239.26 36.22 239.473 36.66C239.7 37.0867 240.02 37.42 240.433 37.66C240.847 37.8867 241.327 38 241.873 38C242.367 38 242.813 37.92 243.213 37.76C243.613 37.5867 243.96 37.3333 244.253 37L245.793 38.54C245.327 39.0867 244.753 39.5 244.073 39.78C243.407 40.06 242.68 40.2 241.893 40.2Z" fill="#BCBCBC"/>
<path d="M3.5 16C3.5 7.43959 10.4396 0.5 19 0.5H283C291.56 0.5 298.5 7.43959 298.5 16H297.5C297.5 7.99187 291.008 1.5 283 1.5H19C10.9919 1.5 4.5 7.99187 4.5 16H3.5ZM298 64H4H298ZM19 64C10.4396 64 3.5 57.0604 3.5 48.5V16C3.5 7.43959 10.4396 0.5 19 0.5V1.5C10.9919 1.5 4.5 7.99187 4.5 16V49C4.5 57.2843 10.9919 64 19 64ZM283 0.5C291.56 0.5 298.5 7.43959 298.5 16V48.5C298.5 57.0604 291.56 64 283 64C291.008 64 297.5 57.2843 297.5 49V16C297.5 7.99187 291.008 1.5 283 1.5V0.5Z" fill="#EEEEEE"/>
</g>
<path d="M58.3144 32.9179C58.3144 31.3711 58.1863 30.2423 57.9091 29.0718H39.8858V36.0532H50.4651C50.2519 37.7882 49.1001 40.4011 46.5405 42.1568L46.5047 42.3905L52.2033 46.7169L52.5981 46.7555C56.224 43.4738 58.3144 38.6452 58.3144 32.9179Z" fill="#4285F4"/>
<path d="M39.8846 51.3124C45.0676 51.3124 49.4187 49.6401 52.5969 46.7556L46.5393 42.1568C44.9183 43.2647 42.7427 44.0381 39.8846 44.0381C34.8083 44.0381 30.4998 40.7564 28.964 36.2205L28.7388 36.2392L22.8133 40.7333L22.7358 40.9445C25.8925 47.0899 32.3767 51.3124 39.8846 51.3124Z" fill="#34A853"/>
<path d="M28.9651 36.2206C28.5598 35.0501 28.3253 33.7958 28.3253 32.4999C28.3253 31.2039 28.5598 29.9498 28.9438 28.7792L28.933 28.5299L22.9333 23.9636L22.737 24.0551C21.4359 26.6053 20.6894 29.469 20.6894 32.4999C20.6894 35.5308 21.4359 38.3944 22.737 40.9446L28.9651 36.2206Z" fill="#FBBC05"/>
<path d="M39.8847 20.9616C43.4893 20.9616 45.9208 22.4875 47.3073 23.7627L52.725 18.5787C49.3977 15.5479 45.0677 13.6875 39.8847 13.6875C32.3767 13.6875 25.8926 17.9098 22.7358 24.0552L28.9427 28.7793C30.4999 24.2434 34.8084 20.9616 39.8847 20.9616Z" fill="#EB4335"/>
<defs>
<filter id="filter0_d_33_104" x="0.5" y="0.5" width="301" height="69.5" filterUnits="userSpaceOnUse" color-interpolation-filters="sRGB">
<feFlood flood-opacity="0" result="BackgroundImageFix"/>
<feColorMatrix in="SourceAlpha" type="matrix" values="0 0 0 0 0 0 0 0 0 0 0 0 0 0 0 0 0 0 127 0" result="hardAlpha"/>
<feOffset dy="3"/>
<feGaussianBlur stdDeviation="1.5"/>
<feComposite in2="hardAlpha" operator="out"/>
<feColorMatrix type="matrix" values="0 0 0 0 0 0 0 0 0 0 0 0 0 0 0 0 0 0 0.25 0"/>
<feBlend mode="normal" in2="BackgroundImageFix" result="effect1_dropShadow_33_104"/>
<feBlend mode="normal" in="SourceGraphic" in2="effect1_dropShadow_33_104" result="shape"/>
</filter>
</defs>
</svg>
