<svg width="296" height="178" viewBox="0 0 296 178" fill="none" xmlns="http://www.w3.org/2000/svg">
<rect width="296" height="62" rx="8" fill="#C7F9CC"/>
<path d="M23.52 27.655V31.15H27.33V32.275H23.52V35.875H27.78V37H22.155V26.53H27.78V27.655H23.52ZM33.8504 28.63C34.8504 28.63 35.6604 28.935 36.2804 29.545C36.9004 30.145 37.2104 31.015 37.2104 32.155V37H35.8604V32.35C35.8604 31.53 35.6554 30.905 35.2454 30.475C34.8354 30.035 34.2754 29.815 33.5654 29.815C32.8454 29.815 32.2704 30.04 31.8404 30.49C31.4204 30.94 31.2104 31.595 31.2104 32.455V37H29.8454V28.78H31.2104V29.95C31.4804 29.53 31.8454 29.205 32.3054 28.975C32.7754 28.745 33.2904 28.63 33.8504 28.63ZM41.1052 29.905V34.75C41.1052 35.15 41.1902 35.435 41.3602 35.605C41.5302 35.765 41.8252 35.845 42.2452 35.845H43.2502V37H42.0202C41.2602 37 40.6902 36.825 40.3102 36.475C39.9302 36.125 39.7402 35.55 39.7402 34.75V29.905H38.6752V28.78H39.7402V26.71H41.1052V28.78H43.2502V29.905H41.1052ZM52.404 32.575C52.404 32.835 52.389 33.11 52.359 33.4H45.789C45.839 34.21 46.114 34.845 46.614 35.305C47.124 35.755 47.739 35.98 48.459 35.98C49.049 35.98 49.539 35.845 49.929 35.575C50.329 35.295 50.609 34.925 50.769 34.465H52.239C52.019 35.255 51.579 35.9 50.919 36.4C50.259 36.89 49.439 37.135 48.459 37.135C47.679 37.135 46.979 36.96 46.359 36.61C45.749 36.26 45.269 35.765 44.919 35.125C44.569 34.475 44.394 33.725 44.394 32.875C44.394 32.025 44.564 31.28 44.904 30.64C45.244 30 45.719 29.51 46.329 29.17C46.949 28.82 47.659 28.645 48.459 28.645C49.239 28.645 49.929 28.815 50.529 29.155C51.129 29.495 51.589 29.965 51.909 30.565C52.239 31.155 52.404 31.825 52.404 32.575ZM50.994 32.29C50.994 31.77 50.879 31.325 50.649 30.955C50.419 30.575 50.104 30.29 49.704 30.1C49.314 29.9 48.879 29.8 48.399 29.8C47.709 29.8 47.119 30.02 46.629 30.46C46.149 30.9 45.874 31.51 45.804 32.29H50.994ZM55.5708 30.115C55.8108 29.645 56.1508 29.28 56.5908 29.02C57.0408 28.76 57.5858 28.63 58.2258 28.63V30.04H57.8658C56.3358 30.04 55.5708 30.87 55.5708 32.53V37H54.2058V28.78H55.5708V30.115ZM71.3005 32.575C71.3005 32.835 71.2855 33.11 71.2555 33.4H64.6855C64.7355 34.21 65.0105 34.845 65.5105 35.305C66.0205 35.755 66.6355 35.98 67.3555 35.98C67.9455 35.98 68.4355 35.845 68.8255 35.575C69.2255 35.295 69.5055 34.925 69.6655 34.465H71.1355C70.9155 35.255 70.4755 35.9 69.8155 36.4C69.1555 36.89 68.3355 37.135 67.3555 37.135C66.5755 37.135 65.8755 36.96 65.2555 36.61C64.6455 36.26 64.1655 35.765 63.8155 35.125C63.4655 34.475 63.2905 33.725 63.2905 32.875C63.2905 32.025 63.4605 31.28 63.8005 30.64C64.1405 30 64.6155 29.51 65.2255 29.17C65.8455 28.82 66.5555 28.645 67.3555 28.645C68.1355 28.645 68.8255 28.815 69.4255 29.155C70.0255 29.495 70.4855 29.965 70.8055 30.565C71.1355 31.155 71.3005 31.825 71.3005 32.575ZM69.8905 32.29C69.8905 31.77 69.7755 31.325 69.5455 30.955C69.3155 30.575 69.0005 30.29 68.6005 30.1C68.2105 29.9 67.7755 29.8 67.2955 29.8C66.6055 29.8 66.0155 30.02 65.5255 30.46C65.0455 30.9 64.7705 31.51 64.7005 32.29H69.8905ZM82.9873 28.63C83.6273 28.63 84.1973 28.765 84.6973 29.035C85.1973 29.295 85.5923 29.69 85.8823 30.22C86.1723 30.75 86.3173 31.395 86.3173 32.155V37H84.9673V32.35C84.9673 31.53 84.7623 30.905 84.3523 30.475C83.9523 30.035 83.4073 29.815 82.7173 29.815C82.0073 29.815 81.4423 30.045 81.0223 30.505C80.6023 30.955 80.3923 31.61 80.3923 32.47V37H79.0423V32.35C79.0423 31.53 78.8373 30.905 78.4273 30.475C78.0273 30.035 77.4823 29.815 76.7923 29.815C76.0823 29.815 75.5173 30.045 75.0973 30.505C74.6773 30.955 74.4673 31.61 74.4673 32.47V37H73.1023V28.78H74.4673V29.965C74.7373 29.535 75.0973 29.205 75.5473 28.975C76.0073 28.745 76.5123 28.63 77.0623 28.63C77.7523 28.63 78.3623 28.785 78.8923 29.095C79.4223 29.405 79.8173 29.86 80.0773 30.46C80.3073 29.88 80.6873 29.43 81.2173 29.11C81.7473 28.79 82.3373 28.63 82.9873 28.63ZM88.0464 32.86C88.0464 32.02 88.2164 31.285 88.5564 30.655C88.8964 30.015 89.3614 29.52 89.9514 29.17C90.5514 28.82 91.2164 28.645 91.9464 28.645C92.6664 28.645 93.2914 28.8 93.8214 29.11C94.3514 29.42 94.7464 29.81 95.0064 30.28V28.78H96.3864V37H95.0064V35.47C94.7364 35.95 94.3314 36.35 93.7914 36.67C93.2614 36.98 92.6414 37.135 91.9314 37.135C91.2014 37.135 90.5414 36.955 89.9514 36.595C89.3614 36.235 88.8964 35.73 88.5564 35.08C88.2164 34.43 88.0464 33.69 88.0464 32.86ZM95.0064 32.875C95.0064 32.255 94.8814 31.715 94.6314 31.255C94.3814 30.795 94.0414 30.445 93.6114 30.205C93.1914 29.955 92.7264 29.83 92.2164 29.83C91.7064 29.83 91.2414 29.95 90.8214 30.19C90.4014 30.43 90.0664 30.78 89.8164 31.24C89.5664 31.7 89.4414 32.24 89.4414 32.86C89.4414 33.49 89.5664 34.04 89.8164 34.51C90.0664 34.97 90.4014 35.325 90.8214 35.575C91.2414 35.815 91.7064 35.935 92.2164 35.935C92.7264 35.935 93.1914 35.815 93.6114 35.575C94.0414 35.325 94.3814 34.97 94.6314 34.51C94.8814 34.04 95.0064 33.495 95.0064 32.875ZM99.3981 27.445C99.1381 27.445 98.9181 27.355 98.7381 27.175C98.5581 26.995 98.4681 26.775 98.4681 26.515C98.4681 26.255 98.5581 26.035 98.7381 25.855C98.9181 25.675 99.1381 25.585 99.3981 25.585C99.6481 25.585 99.8581 25.675 100.028 25.855C100.208 26.035 100.298 26.255 100.298 26.515C100.298 26.775 100.208 26.995 100.028 27.175C99.8581 27.355 99.6481 27.445 99.3981 27.445ZM100.058 28.78V37H98.6931V28.78H100.058ZM103.749 25.9V37H102.384V25.9H103.749ZM113.66 37.135C112.89 37.135 112.19 36.96 111.56 36.61C110.94 36.26 110.45 35.765 110.09 35.125C109.74 34.475 109.565 33.725 109.565 32.875C109.565 32.035 109.745 31.295 110.105 30.655C110.475 30.005 110.975 29.51 111.605 29.17C112.235 28.82 112.94 28.645 113.72 28.645C114.5 28.645 115.205 28.82 115.835 29.17C116.465 29.51 116.96 30 117.32 30.64C117.69 31.28 117.875 32.025 117.875 32.875C117.875 33.725 117.685 34.475 117.305 35.125C116.935 35.765 116.43 36.26 115.79 36.61C115.15 36.96 114.44 37.135 113.66 37.135ZM113.66 35.935C114.15 35.935 114.61 35.82 115.04 35.59C115.47 35.36 115.815 35.015 116.075 34.555C116.345 34.095 116.48 33.535 116.48 32.875C116.48 32.215 116.35 31.655 116.09 31.195C115.83 30.735 115.49 30.395 115.07 30.175C114.65 29.945 114.195 29.83 113.705 29.83C113.205 29.83 112.745 29.945 112.325 30.175C111.915 30.395 111.585 30.735 111.335 31.195C111.085 31.655 110.96 32.215 110.96 32.875C110.96 33.545 111.08 34.11 111.32 34.57C111.57 35.03 111.9 35.375 112.31 35.605C112.72 35.825 113.17 35.935 113.66 35.935ZM121.035 30.115C121.275 29.645 121.615 29.28 122.055 29.02C122.505 28.76 123.05 28.63 123.69 28.63V30.04H123.33C121.8 30.04 121.035 30.87 121.035 32.53V37H119.67V28.78H121.035V30.115ZM136.554 28.78V37H135.189V35.785C134.929 36.205 134.564 36.535 134.094 36.775C133.634 37.005 133.124 37.12 132.564 37.12C131.924 37.12 131.349 36.99 130.839 36.73C130.329 36.46 129.924 36.06 129.624 35.53C129.334 35 129.189 34.355 129.189 33.595V28.78H130.539V33.415C130.539 34.225 130.744 34.85 131.154 35.29C131.564 35.72 132.124 35.935 132.834 35.935C133.564 35.935 134.139 35.71 134.559 35.26C134.979 34.81 135.189 34.155 135.189 33.295V28.78H136.554ZM141.769 37.135C141.139 37.135 140.574 37.03 140.074 36.82C139.574 36.6 139.179 36.3 138.889 35.92C138.599 35.53 138.439 35.085 138.409 34.585H139.819C139.859 34.995 140.049 35.33 140.389 35.59C140.739 35.85 141.194 35.98 141.754 35.98C142.274 35.98 142.684 35.865 142.984 35.635C143.284 35.405 143.434 35.115 143.434 34.765C143.434 34.405 143.274 34.14 142.954 33.97C142.634 33.79 142.139 33.615 141.469 33.445C140.859 33.285 140.359 33.125 139.969 32.965C139.589 32.795 139.259 32.55 138.979 32.23C138.709 31.9 138.574 31.47 138.574 30.94C138.574 30.52 138.699 30.135 138.949 29.785C139.199 29.435 139.554 29.16 140.014 28.96C140.474 28.75 140.999 28.645 141.589 28.645C142.499 28.645 143.234 28.875 143.794 29.335C144.354 29.795 144.654 30.425 144.694 31.225H143.329C143.299 30.795 143.124 30.45 142.804 30.19C142.494 29.93 142.074 29.8 141.544 29.8C141.054 29.8 140.664 29.905 140.374 30.115C140.084 30.325 139.939 30.6 139.939 30.94C139.939 31.21 140.024 31.435 140.194 31.615C140.374 31.785 140.594 31.925 140.854 32.035C141.124 32.135 141.494 32.25 141.964 32.38C142.554 32.54 143.034 32.7 143.404 32.86C143.774 33.01 144.089 33.24 144.349 33.55C144.619 33.86 144.759 34.265 144.769 34.765C144.769 35.215 144.644 35.62 144.394 35.98C144.144 36.34 143.789 36.625 143.329 36.835C142.879 37.035 142.359 37.135 141.769 37.135ZM154.196 32.575C154.196 32.835 154.181 33.11 154.151 33.4H147.581C147.631 34.21 147.906 34.845 148.406 35.305C148.916 35.755 149.531 35.98 150.251 35.98C150.841 35.98 151.331 35.845 151.721 35.575C152.121 35.295 152.401 34.925 152.561 34.465H154.031C153.811 35.255 153.371 35.9 152.711 36.4C152.051 36.89 151.231 37.135 150.251 37.135C149.471 37.135 148.771 36.96 148.151 36.61C147.541 36.26 147.061 35.765 146.711 35.125C146.361 34.475 146.186 33.725 146.186 32.875C146.186 32.025 146.356 31.28 146.696 30.64C147.036 30 147.511 29.51 148.121 29.17C148.741 28.82 149.451 28.645 150.251 28.645C151.031 28.645 151.721 28.815 152.321 29.155C152.921 29.495 153.381 29.965 153.701 30.565C154.031 31.155 154.196 31.825 154.196 32.575ZM152.786 32.29C152.786 31.77 152.671 31.325 152.441 30.955C152.211 30.575 151.896 30.29 151.496 30.1C151.106 29.9 150.671 29.8 150.191 29.8C149.501 29.8 148.911 30.02 148.421 30.46C147.941 30.9 147.666 31.51 147.596 32.29H152.786ZM157.363 30.115C157.603 29.645 157.943 29.28 158.383 29.02C158.833 28.76 159.378 28.63 160.018 28.63V30.04H159.658C158.128 30.04 157.363 30.87 157.363 32.53V37H155.998V28.78H157.363V30.115ZM169.598 28.63C170.598 28.63 171.408 28.935 172.028 29.545C172.648 30.145 172.958 31.015 172.958 32.155V37H171.608V32.35C171.608 31.53 171.403 30.905 170.993 30.475C170.583 30.035 170.023 29.815 169.313 29.815C168.593 29.815 168.018 30.04 167.588 30.49C167.168 30.94 166.958 31.595 166.958 32.455V37H165.593V28.78H166.958V29.95C167.228 29.53 167.593 29.205 168.053 28.975C168.523 28.745 169.038 28.63 169.598 28.63ZM174.677 32.86C174.677 32.02 174.847 31.285 175.187 30.655C175.527 30.015 175.992 29.52 176.582 29.17C177.182 28.82 177.847 28.645 178.577 28.645C179.297 28.645 179.922 28.8 180.452 29.11C180.982 29.42 181.377 29.81 181.637 30.28V28.78H183.017V37H181.637V35.47C181.367 35.95 180.962 36.35 180.422 36.67C179.892 36.98 179.272 37.135 178.562 37.135C177.832 37.135 177.172 36.955 176.582 36.595C175.992 36.235 175.527 35.73 175.187 35.08C174.847 34.43 174.677 33.69 174.677 32.86ZM181.637 32.875C181.637 32.255 181.512 31.715 181.262 31.255C181.012 30.795 180.672 30.445 180.242 30.205C179.822 29.955 179.357 29.83 178.847 29.83C178.337 29.83 177.872 29.95 177.452 30.19C177.032 30.43 176.697 30.78 176.447 31.24C176.197 31.7 176.072 32.24 176.072 32.86C176.072 33.49 176.197 34.04 176.447 34.51C176.697 34.97 177.032 35.325 177.452 35.575C177.872 35.815 178.337 35.935 178.847 35.935C179.357 35.935 179.822 35.815 180.242 35.575C180.672 35.325 181.012 34.97 181.262 34.51C181.512 34.04 181.637 33.495 181.637 32.875ZM195.209 28.63C195.849 28.63 196.419 28.765 196.919 29.035C197.419 29.295 197.814 29.69 198.104 30.22C198.394 30.75 198.539 31.395 198.539 32.155V37H197.189V32.35C197.189 31.53 196.984 30.905 196.574 30.475C196.174 30.035 195.629 29.815 194.939 29.815C194.229 29.815 193.664 30.045 193.244 30.505C192.824 30.955 192.614 31.61 192.614 32.47V37H191.264V32.35C191.264 31.53 191.059 30.905 190.649 30.475C190.249 30.035 189.704 29.815 189.014 29.815C188.304 29.815 187.739 30.045 187.319 30.505C186.899 30.955 186.689 31.61 186.689 32.47V37H185.324V28.78H186.689V29.965C186.959 29.535 187.319 29.205 187.769 28.975C188.229 28.745 188.734 28.63 189.284 28.63C189.974 28.63 190.584 28.785 191.114 29.095C191.644 29.405 192.039 29.86 192.299 30.46C192.529 29.88 192.909 29.43 193.439 29.11C193.969 28.79 194.559 28.63 195.209 28.63ZM208.278 32.575C208.278 32.835 208.263 33.11 208.233 33.4H201.663C201.713 34.21 201.988 34.845 202.488 35.305C202.998 35.755 203.613 35.98 204.333 35.98C204.923 35.98 205.413 35.845 205.803 35.575C206.203 35.295 206.483 34.925 206.643 34.465H208.113C207.893 35.255 207.453 35.9 206.793 36.4C206.133 36.89 205.313 37.135 204.333 37.135C203.553 37.135 202.853 36.96 202.233 36.61C201.623 36.26 201.143 35.765 200.793 35.125C200.443 34.475 200.268 33.725 200.268 32.875C200.268 32.025 200.438 31.28 200.778 30.64C201.118 30 201.593 29.51 202.203 29.17C202.823 28.82 203.533 28.645 204.333 28.645C205.113 28.645 205.803 28.815 206.403 29.155C207.003 29.495 207.463 29.965 207.783 30.565C208.113 31.155 208.278 31.825 208.278 32.575ZM206.868 32.29C206.868 31.77 206.753 31.325 206.523 30.955C206.293 30.575 205.978 30.29 205.578 30.1C205.188 29.9 204.753 29.8 204.273 29.8C203.583 29.8 202.993 30.02 202.503 30.46C202.023 30.9 201.748 31.51 201.678 32.29H206.868Z" fill="black"/>
<rect y="76" width="296" height="62" rx="8" fill="#C7F9CC"/>
<path d="M32.0456 105.605C32.0456 106.475 31.7456 107.2 31.1456 107.78C30.5556 108.35 29.6506 108.635 28.4306 108.635H26.4206V113H25.0556V102.545H28.4306C29.6106 102.545 30.5056 102.83 31.1156 103.4C31.7356 103.97 32.0456 104.705 32.0456 105.605ZM28.4306 107.51C29.1906 107.51 29.7506 107.345 30.1106 107.015C30.4706 106.685 30.6506 106.215 30.6506 105.605C30.6506 104.315 29.9106 103.67 28.4306 103.67H26.4206V107.51H28.4306ZM33.2321 108.86C33.2321 108.02 33.4021 107.285 33.7421 106.655C34.0821 106.015 34.5471 105.52 35.1371 105.17C35.7371 104.82 36.4021 104.645 37.1321 104.645C37.8521 104.645 38.4771 104.8 39.0071 105.11C39.5371 105.42 39.9321 105.81 40.1921 106.28V104.78H41.5721V113H40.1921V111.47C39.9221 111.95 39.5171 112.35 38.9771 112.67C38.4471 112.98 37.8271 113.135 37.1171 113.135C36.3871 113.135 35.7271 112.955 35.1371 112.595C34.5471 112.235 34.0821 111.73 33.7421 111.08C33.4021 110.43 33.2321 109.69 33.2321 108.86ZM40.1921 108.875C40.1921 108.255 40.0671 107.715 39.8171 107.255C39.5671 106.795 39.2271 106.445 38.7971 106.205C38.3771 105.955 37.9121 105.83 37.4021 105.83C36.8921 105.83 36.4271 105.95 36.0071 106.19C35.5871 106.43 35.2521 106.78 35.0021 107.24C34.7521 107.7 34.6271 108.24 34.6271 108.86C34.6271 109.49 34.7521 110.04 35.0021 110.51C35.2521 110.97 35.5871 111.325 36.0071 111.575C36.4271 111.815 36.8921 111.935 37.4021 111.935C37.9121 111.935 38.3771 111.815 38.7971 111.575C39.2271 111.325 39.5671 110.97 39.8171 110.51C40.0671 110.04 40.1921 109.495 40.1921 108.875ZM46.7888 113.135C46.1588 113.135 45.5938 113.03 45.0938 112.82C44.5938 112.6 44.1988 112.3 43.9088 111.92C43.6188 111.53 43.4588 111.085 43.4288 110.585H44.8388C44.8788 110.995 45.0688 111.33 45.4088 111.59C45.7588 111.85 46.2138 111.98 46.7738 111.98C47.2938 111.98 47.7038 111.865 48.0038 111.635C48.3038 111.405 48.4538 111.115 48.4538 110.765C48.4538 110.405 48.2938 110.14 47.9738 109.97C47.6538 109.79 47.1588 109.615 46.4888 109.445C45.8788 109.285 45.3788 109.125 44.9888 108.965C44.6088 108.795 44.2788 108.55 43.9988 108.23C43.7288 107.9 43.5938 107.47 43.5938 106.94C43.5938 106.52 43.7188 106.135 43.9688 105.785C44.2188 105.435 44.5738 105.16 45.0338 104.96C45.4938 104.75 46.0188 104.645 46.6088 104.645C47.5188 104.645 48.2538 104.875 48.8138 105.335C49.3738 105.795 49.6738 106.425 49.7138 107.225H48.3488C48.3188 106.795 48.1438 106.45 47.8238 106.19C47.5138 105.93 47.0938 105.8 46.5638 105.8C46.0738 105.8 45.6838 105.905 45.3938 106.115C45.1038 106.325 44.9588 106.6 44.9588 106.94C44.9588 107.21 45.0438 107.435 45.2138 107.615C45.3938 107.785 45.6138 107.925 45.8738 108.035C46.1438 108.135 46.5138 108.25 46.9838 108.38C47.5738 108.54 48.0538 108.7 48.4238 108.86C48.7938 109.01 49.1088 109.24 49.3688 109.55C49.6388 109.86 49.7788 110.265 49.7888 110.765C49.7888 111.215 49.6638 111.62 49.4138 111.98C49.1638 112.34 48.8088 112.625 48.3488 112.835C47.8988 113.035 47.3788 113.135 46.7888 113.135ZM54.6258 113.135C53.9958 113.135 53.4308 113.03 52.9308 112.82C52.4308 112.6 52.0358 112.3 51.7458 111.92C51.4558 111.53 51.2958 111.085 51.2658 110.585H52.6758C52.7158 110.995 52.9058 111.33 53.2458 111.59C53.5958 111.85 54.0508 111.98 54.6108 111.98C55.1308 111.98 55.5408 111.865 55.8408 111.635C56.1408 111.405 56.2908 111.115 56.2908 110.765C56.2908 110.405 56.1308 110.14 55.8108 109.97C55.4908 109.79 54.9958 109.615 54.3258 109.445C53.7158 109.285 53.2158 109.125 52.8258 108.965C52.4458 108.795 52.1158 108.55 51.8358 108.23C51.5658 107.9 51.4308 107.47 51.4308 106.94C51.4308 106.52 51.5558 106.135 51.8058 105.785C52.0558 105.435 52.4108 105.16 52.8708 104.96C53.3308 104.75 53.8558 104.645 54.4458 104.645C55.3558 104.645 56.0908 104.875 56.6508 105.335C57.2108 105.795 57.5108 106.425 57.5508 107.225H56.1858C56.1558 106.795 55.9808 106.45 55.6608 106.19C55.3508 105.93 54.9308 105.8 54.4008 105.8C53.9108 105.8 53.5208 105.905 53.2308 106.115C52.9408 106.325 52.7958 106.6 52.7958 106.94C52.7958 107.21 52.8808 107.435 53.0508 107.615C53.2308 107.785 53.4508 107.925 53.7108 108.035C53.9808 108.135 54.3508 108.25 54.8208 108.38C55.4108 108.54 55.8908 108.7 56.2608 108.86C56.6308 109.01 56.9458 109.24 57.2058 109.55C57.4758 109.86 57.6158 110.265 57.6258 110.765C57.6258 111.215 57.5008 111.62 57.2508 111.98C57.0008 112.34 56.6458 112.625 56.1858 112.835C55.7358 113.035 55.2158 113.135 54.6258 113.135ZM70.5027 104.78L67.9377 113H66.5277L64.5477 106.475L62.5677 113H61.1577L58.5777 104.78H59.9727L61.8627 111.68L63.9027 104.78H65.2977L67.2927 111.695L69.1527 104.78H70.5027ZM75.4424 113.135C74.6724 113.135 73.9724 112.96 73.3424 112.61C72.7224 112.26 72.2324 111.765 71.8724 111.125C71.5224 110.475 71.3474 109.725 71.3474 108.875C71.3474 108.035 71.5274 107.295 71.8874 106.655C72.2574 106.005 72.7574 105.51 73.3874 105.17C74.0174 104.82 74.7224 104.645 75.5024 104.645C76.2824 104.645 76.9874 104.82 77.6174 105.17C78.2474 105.51 78.7424 106 79.1024 106.64C79.4724 107.28 79.6574 108.025 79.6574 108.875C79.6574 109.725 79.4674 110.475 79.0874 111.125C78.7174 111.765 78.2124 112.26 77.5724 112.61C76.9324 112.96 76.2224 113.135 75.4424 113.135ZM75.4424 111.935C75.9324 111.935 76.3924 111.82 76.8224 111.59C77.2524 111.36 77.5974 111.015 77.8574 110.555C78.1274 110.095 78.2624 109.535 78.2624 108.875C78.2624 108.215 78.1324 107.655 77.8724 107.195C77.6124 106.735 77.2724 106.395 76.8524 106.175C76.4324 105.945 75.9774 105.83 75.4874 105.83C74.9874 105.83 74.5274 105.945 74.1074 106.175C73.6974 106.395 73.3674 106.735 73.1174 107.195C72.8674 107.655 72.7424 108.215 72.7424 108.875C72.7424 109.545 72.8624 110.11 73.1024 110.57C73.3524 111.03 73.6824 111.375 74.0924 111.605C74.5024 111.825 74.9524 111.935 75.4424 111.935ZM82.8171 106.115C83.0571 105.645 83.3971 105.28 83.8371 105.02C84.2871 104.76 84.8321 104.63 85.4721 104.63V106.04H85.1121C83.5821 106.04 82.8171 106.87 82.8171 108.53V113H81.4521V104.78H82.8171V106.115ZM86.5378 108.86C86.5378 108.02 86.7078 107.285 87.0478 106.655C87.3878 106.015 87.8528 105.52 88.4428 105.17C89.0428 104.82 89.7128 104.645 90.4528 104.645C91.0928 104.645 91.6878 104.795 92.2378 105.095C92.7878 105.385 93.2078 105.77 93.4978 106.25V101.9H94.8778V113H93.4978V111.455C93.2278 111.945 92.8278 112.35 92.2978 112.67C91.7678 112.98 91.1478 113.135 90.4378 113.135C89.7078 113.135 89.0428 112.955 88.4428 112.595C87.8528 112.235 87.3878 111.73 87.0478 111.08C86.7078 110.43 86.5378 109.69 86.5378 108.86ZM93.4978 108.875C93.4978 108.255 93.3728 107.715 93.1228 107.255C92.8728 106.795 92.5328 106.445 92.1028 106.205C91.6828 105.955 91.2178 105.83 90.7078 105.83C90.1978 105.83 89.7328 105.95 89.3128 106.19C88.8928 106.43 88.5578 106.78 88.3078 107.24C88.0578 107.7 87.9328 108.24 87.9328 108.86C87.9328 109.49 88.0578 110.04 88.3078 110.51C88.5578 110.97 88.8928 111.325 89.3128 111.575C89.7328 111.815 90.1978 111.935 90.7078 111.935C91.2178 111.935 91.6828 111.815 92.1028 111.575C92.5328 111.325 92.8728 110.97 93.1228 110.51C93.3728 110.04 93.4978 109.495 93.4978 108.875Z" fill="black"/>
<path d="M262.445 103.09C264.866 103.09 266.831 104.821 266.831 106.953C266.831 107.451 266.717 107.926 266.52 108.363L269.086 110.623C270.411 109.649 271.455 108.39 272.099 106.953C270.577 103.562 266.836 101.159 262.445 101.159C261.217 101.159 260.041 101.352 258.949 101.7L260.844 103.365C261.34 103.195 261.879 103.09 262.445 103.09Z" fill="#22577A"/>
<path d="M253.672 100.985L255.672 102.746L256.072 103.098C254.624 104.095 253.479 105.419 252.795 106.953C254.313 110.344 258.059 112.747 262.445 112.747C263.805 112.747 265.103 112.515 266.292 112.094L266.665 112.423L269.222 114.678L270.341 113.697L254.791 100L253.672 100.985ZM258.524 105.253L259.879 106.447C259.84 106.613 259.813 106.779 259.813 106.953C259.813 108.232 260.993 109.271 262.445 109.271C262.642 109.271 262.831 109.247 263.015 109.213L264.371 110.406C263.787 110.661 263.138 110.816 262.445 110.816C260.024 110.816 258.059 109.085 258.059 106.953C258.059 106.343 258.234 105.771 258.524 105.253Z" fill="#22577A"/>
<path d="M142.01 174V165.81C142.01 165.28 142.125 164.82 142.355 164.43C142.585 164.03 142.9 163.715 143.3 163.485C143.71 163.255 144.185 163.14 144.725 163.14C145.135 163.14 145.49 163.21 145.79 163.35C146.09 163.49 146.365 163.695 146.615 163.965L145.73 164.835C145.6 164.695 145.455 164.59 145.295 164.52C145.135 164.44 144.94 164.4 144.71 164.4C144.28 164.4 143.945 164.525 143.705 164.775C143.475 165.025 143.36 165.37 143.36 165.81V174H142.01ZM140.255 168.105V166.875H145.625V168.105H140.255ZM149.826 174.15C149.126 174.15 148.496 173.985 147.936 173.655C147.376 173.325 146.931 172.88 146.601 172.32C146.271 171.75 146.106 171.115 146.106 170.415C146.106 169.725 146.271 169.105 146.601 168.555C146.931 167.995 147.376 167.55 147.936 167.22C148.496 166.89 149.126 166.725 149.826 166.725C150.516 166.725 151.141 166.89 151.701 167.22C152.271 167.54 152.721 167.98 153.051 168.54C153.381 169.1 153.546 169.725 153.546 170.415C153.546 171.115 153.381 171.75 153.051 172.32C152.721 172.88 152.271 173.325 151.701 173.655C151.141 173.985 150.516 174.15 149.826 174.15ZM149.826 172.845C150.276 172.845 150.676 172.74 151.026 172.53C151.376 172.32 151.651 172.035 151.851 171.675C152.051 171.305 152.151 170.885 152.151 170.415C152.151 169.955 152.046 169.545 151.836 169.185C151.636 168.825 151.361 168.545 151.011 168.345C150.671 168.135 150.276 168.03 149.826 168.03C149.376 168.03 148.976 168.135 148.626 168.345C148.276 168.545 148.001 168.825 147.801 169.185C147.601 169.545 147.501 169.955 147.501 170.415C147.501 170.885 147.601 171.305 147.801 171.675C148.001 172.035 148.276 172.32 148.626 172.53C148.976 172.74 149.376 172.845 149.826 172.845ZM155.067 174V166.875H156.417V174H155.067ZM156.417 169.935L155.907 169.71C155.907 168.8 156.117 168.075 156.537 167.535C156.957 166.995 157.562 166.725 158.352 166.725C158.712 166.725 159.037 166.79 159.327 166.92C159.617 167.04 159.887 167.245 160.137 167.535L159.252 168.45C159.102 168.29 158.937 168.175 158.757 168.105C158.577 168.035 158.367 168 158.127 168C157.627 168 157.217 168.16 156.897 168.48C156.577 168.8 156.417 169.285 156.417 169.935ZM163.808 177.135C163.078 177.135 162.428 177 161.858 176.73C161.298 176.46 160.848 176.08 160.508 175.59L161.378 174.705C161.668 175.075 162.013 175.355 162.413 175.545C162.813 175.745 163.288 175.845 163.838 175.845C164.568 175.845 165.143 175.65 165.563 175.26C165.993 174.88 166.208 174.365 166.208 173.715V171.945L166.448 170.34L166.208 168.75V166.875H167.558V173.715C167.558 174.395 167.398 174.99 167.078 175.5C166.768 176.01 166.328 176.41 165.758 176.7C165.198 176.99 164.548 177.135 163.808 177.135ZM163.808 173.88C163.158 173.88 162.573 173.725 162.053 173.415C161.543 173.105 161.138 172.68 160.838 172.14C160.538 171.59 160.388 170.975 160.388 170.295C160.388 169.615 160.538 169.01 160.838 168.48C161.138 167.94 161.543 167.515 162.053 167.205C162.573 166.885 163.158 166.725 163.808 166.725C164.368 166.725 164.863 166.835 165.293 167.055C165.723 167.275 166.063 167.585 166.313 167.985C166.573 168.375 166.713 168.835 166.733 169.365V171.255C166.703 171.775 166.558 172.235 166.298 172.635C166.048 173.025 165.708 173.33 165.278 173.55C164.848 173.77 164.358 173.88 163.808 173.88ZM164.078 172.605C164.518 172.605 164.903 172.51 165.233 172.32C165.573 172.13 165.833 171.865 166.013 171.525C166.193 171.175 166.283 170.77 166.283 170.31C166.283 169.85 166.188 169.45 165.998 169.11C165.818 168.76 165.563 168.49 165.233 168.3C164.903 168.1 164.513 168 164.063 168C163.613 168 163.218 168.1 162.878 168.3C162.538 168.49 162.268 168.76 162.068 169.11C161.878 169.45 161.783 169.845 161.783 170.295C161.783 170.745 161.878 171.145 162.068 171.495C162.268 171.845 162.538 172.12 162.878 172.32C163.228 172.51 163.628 172.605 164.078 172.605ZM172.795 174.15C172.095 174.15 171.465 173.985 170.905 173.655C170.345 173.325 169.9 172.88 169.57 172.32C169.24 171.75 169.075 171.115 169.075 170.415C169.075 169.725 169.24 169.105 169.57 168.555C169.9 167.995 170.345 167.55 170.905 167.22C171.465 166.89 172.095 166.725 172.795 166.725C173.485 166.725 174.11 166.89 174.67 167.22C175.24 167.54 175.69 167.98 176.02 168.54C176.35 169.1 176.515 169.725 176.515 170.415C176.515 171.115 176.35 171.75 176.02 172.32C175.69 172.88 175.24 173.325 174.67 173.655C174.11 173.985 173.485 174.15 172.795 174.15ZM172.795 172.845C173.245 172.845 173.645 172.74 173.995 172.53C174.345 172.32 174.62 172.035 174.82 171.675C175.02 171.305 175.12 170.885 175.12 170.415C175.12 169.955 175.015 169.545 174.805 169.185C174.605 168.825 174.33 168.545 173.98 168.345C173.64 168.135 173.245 168.03 172.795 168.03C172.345 168.03 171.945 168.135 171.595 168.345C171.245 168.545 170.97 168.825 170.77 169.185C170.57 169.545 170.47 169.955 170.47 170.415C170.47 170.885 170.57 171.305 170.77 171.675C170.97 172.035 171.245 172.32 171.595 172.53C171.945 172.74 172.345 172.845 172.795 172.845ZM178.911 174V163.89H180.261V174H178.911ZM177.156 168.105V166.875H182.016V168.105H177.156ZM188.799 174.06L185.709 166.875H187.209L189.504 172.5H189.024L191.439 166.875H192.939L189.609 174.06H188.799ZM186.759 176.985L188.859 172.68L189.609 174.06L188.259 176.985H186.759ZM197.023 174.15C196.323 174.15 195.693 173.985 195.133 173.655C194.573 173.325 194.128 172.88 193.798 172.32C193.468 171.75 193.303 171.115 193.303 170.415C193.303 169.725 193.468 169.105 193.798 168.555C194.128 167.995 194.573 167.55 195.133 167.22C195.693 166.89 196.323 166.725 197.023 166.725C197.713 166.725 198.338 166.89 198.898 167.22C199.468 167.54 199.918 167.98 200.248 168.54C200.578 169.1 200.743 169.725 200.743 170.415C200.743 171.115 200.578 171.75 200.248 172.32C199.918 172.88 199.468 173.325 198.898 173.655C198.338 173.985 197.713 174.15 197.023 174.15ZM197.023 172.845C197.473 172.845 197.873 172.74 198.223 172.53C198.573 172.32 198.848 172.035 199.048 171.675C199.248 171.305 199.348 170.885 199.348 170.415C199.348 169.955 199.243 169.545 199.033 169.185C198.833 168.825 198.558 168.545 198.208 168.345C197.868 168.135 197.473 168.03 197.023 168.03C196.573 168.03 196.173 168.135 195.823 168.345C195.473 168.545 195.198 168.825 194.998 169.185C194.798 169.545 194.698 169.955 194.698 170.415C194.698 170.885 194.798 171.305 194.998 171.675C195.198 172.035 195.473 172.32 195.823 172.53C196.173 172.74 196.573 172.845 197.023 172.845ZM205.129 174.15C204.549 174.15 204.024 174.02 203.554 173.76C203.094 173.49 202.734 173.12 202.474 172.65C202.214 172.18 202.084 171.635 202.084 171.015V166.875H203.434V170.955C203.434 171.345 203.499 171.685 203.629 171.975C203.769 172.255 203.969 172.47 204.229 172.62C204.489 172.77 204.794 172.845 205.144 172.845C205.674 172.845 206.089 172.68 206.389 172.35C206.689 172.01 206.839 171.545 206.839 170.955V166.875H208.189V171.015C208.189 171.635 208.059 172.18 207.799 172.65C207.539 173.12 207.179 173.49 206.719 173.76C206.269 174.02 205.739 174.15 205.129 174.15ZM209.999 174V166.875H211.349V174H209.999ZM211.349 169.935L210.839 169.71C210.839 168.8 211.049 168.075 211.469 167.535C211.889 166.995 212.494 166.725 213.284 166.725C213.644 166.725 213.969 166.79 214.259 166.92C214.549 167.04 214.819 167.245 215.069 167.535L214.184 168.45C214.034 168.29 213.869 168.175 213.689 168.105C213.509 168.035 213.299 168 213.059 168C212.559 168 212.149 168.16 211.829 168.48C211.509 168.8 211.349 169.285 211.349 169.935ZM223.153 174.15C222.613 174.15 222.123 174.04 221.683 173.82C221.253 173.59 220.908 173.275 220.648 172.875C220.388 172.475 220.243 172.02 220.213 171.51V169.365C220.243 168.845 220.388 168.39 220.648 168C220.918 167.6 221.268 167.29 221.698 167.07C222.138 166.84 222.623 166.725 223.153 166.725C223.803 166.725 224.388 166.89 224.908 167.22C225.438 167.55 225.853 167.995 226.153 168.555C226.453 169.115 226.603 169.745 226.603 170.445C226.603 171.145 226.453 171.775 226.153 172.335C225.853 172.895 225.438 173.34 224.908 173.67C224.388 173.99 223.803 174.15 223.153 174.15ZM222.928 172.875C223.378 172.875 223.773 172.77 224.113 172.56C224.453 172.35 224.723 172.065 224.923 171.705C225.123 171.335 225.223 170.91 225.223 170.43C225.223 169.96 225.123 169.54 224.923 169.17C224.723 168.8 224.453 168.515 224.113 168.315C223.773 168.105 223.383 168 222.943 168C222.493 168 222.098 168.105 221.758 168.315C221.418 168.515 221.153 168.8 220.963 169.17C220.773 169.54 220.678 169.965 220.678 170.445C220.678 170.915 220.768 171.335 220.948 171.705C221.138 172.065 221.403 172.35 221.743 172.56C222.093 172.77 222.488 172.875 222.928 172.875ZM219.403 176.985V166.875H220.753V168.75L220.498 170.475L220.753 172.215V176.985H219.403ZM231.164 174.15C230.514 174.15 229.924 173.99 229.394 173.67C228.864 173.34 228.444 172.895 228.134 172.335C227.834 171.775 227.684 171.145 227.684 170.445C227.684 169.745 227.834 169.115 228.134 168.555C228.444 167.995 228.859 167.55 229.379 167.22C229.909 166.89 230.504 166.725 231.164 166.725C231.704 166.725 232.184 166.84 232.604 167.07C233.034 167.29 233.379 167.6 233.639 168C233.899 168.39 234.044 168.845 234.074 169.365V171.51C234.044 172.02 233.899 172.475 233.639 172.875C233.389 173.275 233.049 173.59 232.619 173.82C232.199 174.04 231.714 174.15 231.164 174.15ZM231.389 172.875C232.059 172.875 232.599 172.65 233.009 172.2C233.419 171.74 233.624 171.155 233.624 170.445C233.624 169.955 233.529 169.53 233.339 169.17C233.159 168.8 232.899 168.515 232.559 168.315C232.219 168.105 231.824 168 231.374 168C230.924 168 230.524 168.105 230.174 168.315C229.834 168.525 229.564 168.815 229.364 169.185C229.174 169.545 229.079 169.96 229.079 170.43C229.079 170.91 229.174 171.335 229.364 171.705C229.564 172.065 229.839 172.35 230.189 172.56C230.539 172.77 230.939 172.875 231.389 172.875ZM233.534 174V172.08L233.789 170.34L233.534 168.615V166.875H234.899V174H233.534ZM239.129 174.15C238.729 174.15 238.349 174.1 237.989 174C237.639 173.89 237.314 173.74 237.014 173.55C236.714 173.35 236.454 173.115 236.234 172.845L237.104 171.975C237.364 172.295 237.664 172.535 238.004 172.695C238.344 172.845 238.724 172.92 239.144 172.92C239.564 172.92 239.889 172.85 240.119 172.71C240.349 172.56 240.464 172.355 240.464 172.095C240.464 171.835 240.369 171.635 240.179 171.495C239.999 171.345 239.764 171.225 239.474 171.135C239.184 171.035 238.874 170.94 238.544 170.85C238.224 170.75 237.919 170.625 237.629 170.475C237.339 170.325 237.099 170.12 236.909 169.86C236.729 169.6 236.639 169.255 236.639 168.825C236.639 168.395 236.744 168.025 236.954 167.715C237.164 167.395 237.454 167.15 237.824 166.98C238.204 166.81 238.659 166.725 239.189 166.725C239.749 166.725 240.244 166.825 240.674 167.025C241.114 167.215 241.474 167.505 241.754 167.895L240.884 168.765C240.684 168.505 240.434 168.305 240.134 168.165C239.844 168.025 239.514 167.955 239.144 167.955C238.754 167.955 238.454 168.025 238.244 168.165C238.044 168.295 237.944 168.48 237.944 168.72C237.944 168.96 238.034 169.145 238.214 169.275C238.394 169.405 238.629 169.515 238.919 169.605C239.219 169.695 239.529 169.79 239.849 169.89C240.169 169.98 240.474 170.105 240.764 170.265C241.054 170.425 241.289 170.64 241.469 170.91C241.659 171.18 241.754 171.535 241.754 171.975C241.754 172.645 241.514 173.175 241.034 173.565C240.564 173.955 239.929 174.15 239.129 174.15ZM245.53 174.15C245.13 174.15 244.75 174.1 244.39 174C244.04 173.89 243.715 173.74 243.415 173.55C243.115 173.35 242.855 173.115 242.635 172.845L243.505 171.975C243.765 172.295 244.065 172.535 244.405 172.695C244.745 172.845 245.125 172.92 245.545 172.92C245.965 172.92 246.29 172.85 246.52 172.71C246.75 172.56 246.865 172.355 246.865 172.095C246.865 171.835 246.77 171.635 246.58 171.495C246.4 171.345 246.165 171.225 245.875 171.135C245.585 171.035 245.275 170.94 244.945 170.85C244.625 170.75 244.32 170.625 244.03 170.475C243.74 170.325 243.5 170.12 243.31 169.86C243.13 169.6 243.04 169.255 243.04 168.825C243.04 168.395 243.145 168.025 243.355 167.715C243.565 167.395 243.855 167.15 244.225 166.98C244.605 166.81 245.06 166.725 245.59 166.725C246.15 166.725 246.645 166.825 247.075 167.025C247.515 167.215 247.875 167.505 248.155 167.895L247.285 168.765C247.085 168.505 246.835 168.305 246.535 168.165C246.245 168.025 245.915 167.955 245.545 167.955C245.155 167.955 244.855 168.025 244.645 168.165C244.445 168.295 244.345 168.48 244.345 168.72C244.345 168.96 244.435 169.145 244.615 169.275C244.795 169.405 245.03 169.515 245.32 169.605C245.62 169.695 245.93 169.79 246.25 169.89C246.57 169.98 246.875 170.105 247.165 170.265C247.455 170.425 247.69 170.64 247.87 170.91C248.06 171.18 248.155 171.535 248.155 171.975C248.155 172.645 247.915 173.175 247.435 173.565C246.965 173.955 246.33 174.15 245.53 174.15ZM251.707 174L248.887 166.875H250.297L252.337 172.425H251.887L253.912 166.875H254.692L256.717 172.425H256.267L258.307 166.875H259.717L256.912 174H256.117L254.062 168.615H254.557L252.487 174H251.707ZM263.967 174.15C263.267 174.15 262.637 173.985 262.077 173.655C261.517 173.325 261.072 172.88 260.742 172.32C260.412 171.75 260.247 171.115 260.247 170.415C260.247 169.725 260.412 169.105 260.742 168.555C261.072 167.995 261.517 167.55 262.077 167.22C262.637 166.89 263.267 166.725 263.967 166.725C264.657 166.725 265.282 166.89 265.842 167.22C266.412 167.54 266.862 167.98 267.192 168.54C267.522 169.1 267.687 169.725 267.687 170.415C267.687 171.115 267.522 171.75 267.192 172.32C266.862 172.88 266.412 173.325 265.842 173.655C265.282 173.985 264.657 174.15 263.967 174.15ZM263.967 172.845C264.417 172.845 264.817 172.74 265.167 172.53C265.517 172.32 265.792 172.035 265.992 171.675C266.192 171.305 266.292 170.885 266.292 170.415C266.292 169.955 266.187 169.545 265.977 169.185C265.777 168.825 265.502 168.545 265.152 168.345C264.812 168.135 264.417 168.03 263.967 168.03C263.517 168.03 263.117 168.135 262.767 168.345C262.417 168.545 262.142 168.825 261.942 169.185C261.742 169.545 261.642 169.955 261.642 170.415C261.642 170.885 261.742 171.305 261.942 171.675C262.142 172.035 262.417 172.32 262.767 172.53C263.117 172.74 263.517 172.845 263.967 172.845ZM269.208 174V166.875H270.558V174H269.208ZM270.558 169.935L270.048 169.71C270.048 168.8 270.258 168.075 270.678 167.535C271.098 166.995 271.703 166.725 272.493 166.725C272.853 166.725 273.178 166.79 273.468 166.92C273.758 167.04 274.028 167.245 274.278 167.535L273.393 168.45C273.243 168.29 273.078 168.175 272.898 168.105C272.718 168.035 272.508 168 272.268 168C271.768 168 271.358 168.16 271.038 168.48C270.718 168.8 270.558 169.285 270.558 169.935ZM278.009 174.15C277.349 174.15 276.759 173.99 276.239 173.67C275.719 173.34 275.304 172.895 274.994 172.335C274.694 171.775 274.544 171.145 274.544 170.445C274.544 169.745 274.694 169.115 274.994 168.555C275.304 167.995 275.719 167.55 276.239 167.22C276.759 166.89 277.349 166.725 278.009 166.725C278.539 166.725 279.019 166.84 279.449 167.07C279.879 167.29 280.224 167.6 280.484 168C280.754 168.39 280.904 168.845 280.934 169.365V171.51C280.904 172.02 280.759 172.475 280.499 172.875C280.239 173.275 279.894 173.59 279.464 173.82C279.034 174.04 278.549 174.15 278.009 174.15ZM278.234 172.875C278.684 172.875 279.074 172.77 279.404 172.56C279.744 172.35 280.009 172.065 280.199 171.705C280.389 171.335 280.484 170.915 280.484 170.445C280.484 169.955 280.384 169.53 280.184 169.17C279.994 168.81 279.729 168.525 279.389 168.315C279.059 168.105 278.669 168 278.219 168C277.769 168 277.374 168.105 277.034 168.315C276.694 168.525 276.424 168.815 276.224 169.185C276.034 169.545 275.939 169.96 275.939 170.43C275.939 170.91 276.034 171.335 276.224 171.705C276.424 172.065 276.694 172.35 277.034 172.56C277.384 172.77 277.784 172.875 278.234 172.875ZM281.759 174H280.394V172.08L280.649 170.34L280.394 168.615V163.29H281.759V174ZM286.019 170.7L286.004 167.85L286.409 167.835C286.759 167.835 287.064 167.76 287.324 167.61C287.594 167.46 287.804 167.255 287.954 166.995C288.104 166.735 288.179 166.445 288.179 166.125C288.179 165.795 288.104 165.505 287.954 165.255C287.814 165.005 287.609 164.81 287.339 164.67C287.079 164.53 286.769 164.46 286.409 164.46C285.929 164.46 285.514 164.58 285.164 164.82C284.814 165.06 284.534 165.4 284.324 165.84L283.334 165.015C283.624 164.425 284.039 163.965 284.579 163.635C285.129 163.305 285.759 163.14 286.469 163.14C287.079 163.14 287.619 163.265 288.089 163.515C288.559 163.755 288.924 164.095 289.184 164.535C289.444 164.965 289.574 165.465 289.574 166.035C289.574 166.555 289.454 167.03 289.214 167.46C288.984 167.88 288.654 168.23 288.224 168.51C287.804 168.78 287.304 168.955 286.724 169.035L287.309 168.435L287.189 170.7H286.019ZM286.589 174.15C286.309 174.15 286.074 174.055 285.884 173.865C285.704 173.675 285.614 173.44 285.614 173.16C285.614 172.88 285.704 172.65 285.884 172.47C286.074 172.28 286.309 172.185 286.589 172.185C286.869 172.185 287.099 172.28 287.279 172.47C287.469 172.65 287.564 172.88 287.564 173.16C287.564 173.44 287.469 173.675 287.279 173.865C287.099 174.055 286.869 174.15 286.589 174.15Z" fill="#919090"/>
</svg>
