<svg width="258" height="45" viewBox="0 0 258 45" fill="none" xmlns="http://www.w3.org/2000/svg">
<path d="M0.64 15V1.12H2.52V15H0.64ZM6.83625 15V4.08C6.83625 3.37333 6.98958 2.76 7.29625 2.24C7.60292 1.70667 8.02292 1.28667 8.55625 0.979999C9.10292 0.673333 9.73625 0.519999 10.4563 0.519999C11.0029 0.519999 11.4763 0.613333 11.8763 0.799999C12.2763 0.986666 12.6429 1.26 12.9763 1.62L11.7963 2.78C11.6229 2.59333 11.4296 2.45333 11.2163 2.36C11.0029 2.25333 10.7429 2.2 10.4363 2.2C9.86292 2.2 9.41625 2.36667 9.09625 2.7C8.78958 3.03333 8.63625 3.49333 8.63625 4.08V15H6.83625ZM4.49625 7.14V5.5H11.6563V7.14H4.49625ZM20.7447 15.08L16.6247 5.5H18.6247L21.6847 13H21.0447L24.2647 5.5H26.2647L21.8247 15.08H20.7447ZM18.0247 18.98L20.8247 13.24L21.8247 15.08L20.0247 18.98H18.0247ZM31.7108 15.2C30.7774 15.2 29.9374 14.98 29.1908 14.54C28.4441 14.1 27.8508 13.5067 27.4108 12.76C26.9708 12 26.7508 11.1533 26.7508 10.22C26.7508 9.3 26.9708 8.47333 27.4108 7.74C27.8508 6.99333 28.4441 6.4 29.1908 5.96C29.9374 5.52 30.7774 5.3 31.7108 5.3C32.6308 5.3 33.4641 5.52 34.2108 5.96C34.9708 6.38667 35.5708 6.97333 36.0108 7.72C36.4508 8.46667 36.6708 9.3 36.6708 10.22C36.6708 11.1533 36.4508 12 36.0108 12.76C35.5708 13.5067 34.9708 14.1 34.2108 14.54C33.4641 14.98 32.6308 15.2 31.7108 15.2ZM31.7108 13.46C32.3108 13.46 32.8441 13.32 33.3108 13.04C33.7774 12.76 34.1441 12.38 34.4108 11.9C34.6774 11.4067 34.8108 10.8467 34.8108 10.22C34.8108 9.60667 34.6708 9.06 34.3908 8.58C34.1241 8.1 33.7574 7.72667 33.2908 7.46C32.8374 7.18 32.3108 7.04 31.7108 7.04C31.1108 7.04 30.5774 7.18 30.1108 7.46C29.6441 7.72667 29.2774 8.1 29.0108 8.58C28.7441 9.06 28.6108 9.60667 28.6108 10.22C28.6108 10.8467 28.7441 11.4067 29.0108 11.9C29.2774 12.38 29.6441 12.76 30.1108 13.04C30.5774 13.32 31.1108 13.46 31.7108 13.46ZM42.5189 15.2C41.7456 15.2 41.0456 15.0267 40.4189 14.68C39.8056 14.32 39.3256 13.8267 38.9789 13.2C38.6322 12.5733 38.4589 11.8467 38.4589 11.02V5.5H40.2589V10.94C40.2589 11.46 40.3456 11.9133 40.5189 12.3C40.7056 12.6733 40.9722 12.96 41.3189 13.16C41.6656 13.36 42.0722 13.46 42.5389 13.46C43.2456 13.46 43.7989 13.24 44.1989 12.8C44.5989 12.3467 44.7989 11.7267 44.7989 10.94V5.5H46.5989V11.02C46.5989 11.8467 46.4256 12.5733 46.0789 13.2C45.7322 13.8267 45.2522 14.32 44.6389 14.68C44.0389 15.0267 43.3322 15.2 42.5189 15.2ZM57.1916 15.2C56.3116 15.2 55.5249 14.9867 54.8316 14.56C54.1382 14.12 53.5849 13.5267 53.1716 12.78C52.7716 12.0333 52.5716 11.1933 52.5716 10.26C52.5716 9.32667 52.7716 8.48667 53.1716 7.74C53.5849 6.99333 54.1382 6.4 54.8316 5.96C55.5249 5.52 56.3116 5.3 57.1916 5.3C57.8982 5.3 58.5382 5.45333 59.1116 5.76C59.6849 6.05333 60.1449 6.46667 60.4916 7C60.8516 7.52 61.0516 8.12667 61.0916 8.82V11.68C61.0516 12.36 60.8582 12.9667 60.5116 13.5C60.1649 14.0333 59.7049 14.4533 59.1316 14.76C58.5582 15.0533 57.9116 15.2 57.1916 15.2ZM57.4916 13.5C58.0916 13.5 58.6116 13.36 59.0516 13.08C59.5049 12.8 59.8582 12.42 60.1116 11.94C60.3649 11.4467 60.4916 10.8867 60.4916 10.26C60.4916 9.60667 60.3582 9.04 60.0916 8.56C59.8382 8.08 59.4849 7.7 59.0316 7.42C58.5916 7.14 58.0716 7 57.4716 7C56.8716 7 56.3449 7.14 55.8916 7.42C55.4382 7.7 55.0782 8.08667 54.8116 8.58C54.5582 9.06 54.4316 9.61333 54.4316 10.24C54.4316 10.88 54.5582 11.4467 54.8116 11.94C55.0782 12.42 55.4382 12.8 55.8916 13.08C56.3582 13.36 56.8916 13.5 57.4916 13.5ZM62.1916 15H60.3716V12.44L60.7116 10.12L60.3716 7.82V0.719999H62.1916V15ZM69.1522 15.2C68.2189 15.2 67.3789 14.98 66.6322 14.54C65.8855 14.1 65.2922 13.5067 64.8522 12.76C64.4122 12 64.1922 11.1533 64.1922 10.22C64.1922 9.3 64.4122 8.47333 64.8522 7.74C65.2922 6.99333 65.8855 6.4 66.6322 5.96C67.3789 5.52 68.2189 5.3 69.1522 5.3C70.0722 5.3 70.9055 5.52 71.6522 5.96C72.4122 6.38667 73.0122 6.97333 73.4522 7.72C73.8922 8.46667 74.1122 9.3 74.1122 10.22C74.1122 11.1533 73.8922 12 73.4522 12.76C73.0122 13.5067 72.4122 14.1 71.6522 14.54C70.9055 14.98 70.0722 15.2 69.1522 15.2ZM69.1522 13.46C69.7522 13.46 70.2855 13.32 70.7522 13.04C71.2189 12.76 71.5855 12.38 71.8522 11.9C72.1189 11.4067 72.2522 10.8467 72.2522 10.22C72.2522 9.60667 72.1122 9.06 71.8322 8.58C71.5655 8.1 71.1989 7.72667 70.7322 7.46C70.2789 7.18 69.7522 7.04 69.1522 7.04C68.5522 7.04 68.0189 7.18 67.5522 7.46C67.0855 7.72667 66.7189 8.1 66.4522 8.58C66.1855 9.06 66.0522 9.60667 66.0522 10.22C66.0522 10.8467 66.1855 11.4067 66.4522 11.9C66.7189 12.38 67.0855 12.76 67.5522 13.04C68.0189 13.32 68.5522 13.46 69.1522 13.46ZM82.8603 15V9.46C82.8603 8.74 82.6336 8.14667 82.1803 7.68C81.727 7.21333 81.1403 6.98 80.4203 6.98C79.9403 6.98 79.5136 7.08667 79.1403 7.3C78.767 7.51333 78.4736 7.80667 78.2603 8.18C78.047 8.55333 77.9403 8.98 77.9403 9.46L77.2003 9.04C77.2003 8.32 77.3603 7.68 77.6803 7.12C78.0003 6.56 78.447 6.12 79.0203 5.8C79.5936 5.46667 80.2403 5.3 80.9603 5.3C81.6803 5.3 82.3136 5.48 82.8603 5.84C83.4203 6.2 83.8603 6.67333 84.1803 7.26C84.5003 7.83333 84.6603 8.44667 84.6603 9.1V15H82.8603ZM76.1403 15V5.5H77.9403V15H76.1403ZM86.4686 5.54L87.7086 3.16L88.3486 3C88.2819 3.14667 88.1953 3.26667 88.0886 3.36C87.9953 3.45333 87.8753 3.5 87.7286 3.5C87.4486 3.5 87.1886 3.38667 86.9486 3.16C86.7219 2.92 86.6086 2.62667 86.6086 2.28C86.6086 1.90667 86.7353 1.58667 86.9886 1.32C87.2553 1.05333 87.5753 0.919999 87.9486 0.919999C88.2953 0.919999 88.6019 1.05333 88.8686 1.32C89.1353 1.58667 89.2686 1.90667 89.2686 2.28C89.2686 2.42667 89.2353 2.60667 89.1686 2.82C89.1153 3.02 89.0019 3.28667 88.8286 3.62L87.5086 6.1L86.4686 5.54ZM92.8738 15V1.52H94.6738V15H92.8738ZM90.5338 7.14V5.5H97.0138V7.14H90.5338ZM109.657 15V9.46C109.657 8.74 109.431 8.14667 108.977 7.68C108.524 7.21333 107.937 6.98 107.217 6.98C106.737 6.98 106.311 7.08667 105.937 7.3C105.564 7.51333 105.271 7.80667 105.057 8.18C104.844 8.55333 104.737 8.98 104.737 9.46L103.997 9.04C103.997 8.32 104.157 7.68 104.477 7.12C104.797 6.56 105.244 6.12 105.817 5.8C106.391 5.46667 107.037 5.3 107.757 5.3C108.477 5.3 109.111 5.46 109.657 5.78C110.217 6.1 110.657 6.54667 110.977 7.12C111.297 7.69333 111.457 8.35333 111.457 9.1V15H109.657ZM102.937 15V0.719999H104.737V15H102.937ZM117.934 15.2C117.068 15.2 116.281 14.9867 115.574 14.56C114.868 14.12 114.308 13.5267 113.894 12.78C113.494 12.0333 113.294 11.1933 113.294 10.26C113.294 9.32667 113.494 8.48667 113.894 7.74C114.308 6.99333 114.861 6.4 115.554 5.96C116.261 5.52 117.054 5.3 117.934 5.3C118.654 5.3 119.294 5.45333 119.854 5.76C120.428 6.05333 120.888 6.46667 121.234 7C121.581 7.52 121.774 8.12667 121.814 8.82V11.68C121.774 12.36 121.581 12.9667 121.234 13.5C120.901 14.0333 120.448 14.4533 119.874 14.76C119.314 15.0533 118.668 15.2 117.934 15.2ZM118.234 13.5C119.128 13.5 119.848 13.2 120.394 12.6C120.941 11.9867 121.214 11.2067 121.214 10.26C121.214 9.60667 121.088 9.04 120.834 8.56C120.594 8.06667 120.248 7.68667 119.794 7.42C119.341 7.14 118.814 7 118.214 7C117.614 7 117.081 7.14 116.614 7.42C116.161 7.7 115.801 8.08667 115.534 8.58C115.281 9.06 115.154 9.61333 115.154 10.24C115.154 10.88 115.281 11.4467 115.534 11.94C115.801 12.42 116.168 12.8 116.634 13.08C117.101 13.36 117.634 13.5 118.234 13.5ZM121.094 15V12.44L121.434 10.12L121.094 7.82V5.5H122.914V15H121.094ZM128.795 15L124.435 5.5H126.435L129.935 13.52H128.775L132.295 5.5H134.215L129.855 15H128.795ZM139.779 15.2C138.832 15.2 137.979 14.9867 137.219 14.56C136.459 14.12 135.859 13.5267 135.419 12.78C134.979 12.0333 134.759 11.1867 134.759 10.24C134.759 9.30667 134.972 8.46667 135.399 7.72C135.839 6.97333 136.425 6.38667 137.159 5.96C137.905 5.52 138.739 5.3 139.659 5.3C140.539 5.3 141.312 5.5 141.979 5.9C142.659 6.3 143.185 6.85333 143.559 7.56C143.945 8.26667 144.139 9.06667 144.139 9.96C144.139 10.0933 144.132 10.24 144.119 10.4C144.105 10.5467 144.079 10.72 144.039 10.92H136.019V9.42H143.079L142.419 10C142.419 9.36 142.305 8.82 142.079 8.38C141.852 7.92667 141.532 7.58 141.119 7.34C140.705 7.08667 140.205 6.96 139.619 6.96C139.005 6.96 138.465 7.09333 137.999 7.36C137.532 7.62667 137.172 8 136.919 8.48C136.665 8.96 136.539 9.52667 136.539 10.18C136.539 10.8467 136.672 11.4333 136.939 11.94C137.205 12.4333 137.585 12.82 138.079 13.1C138.572 13.3667 139.139 13.5 139.779 13.5C140.312 13.5 140.799 13.4067 141.239 13.22C141.692 13.0333 142.079 12.7533 142.399 12.38L143.559 13.56C143.105 14.0933 142.545 14.5 141.879 14.78C141.225 15.06 140.525 15.2 139.779 15.2ZM154.301 15.2C153.435 15.2 152.648 14.9867 151.941 14.56C151.235 14.12 150.675 13.5267 150.261 12.78C149.861 12.0333 149.661 11.1933 149.661 10.26C149.661 9.32667 149.861 8.48667 150.261 7.74C150.675 6.99333 151.228 6.4 151.921 5.96C152.628 5.52 153.421 5.3 154.301 5.3C155.021 5.3 155.661 5.45333 156.221 5.76C156.795 6.05333 157.255 6.46667 157.601 7C157.948 7.52 158.141 8.12667 158.181 8.82V11.68C158.141 12.36 157.948 12.9667 157.601 13.5C157.268 14.0333 156.815 14.4533 156.241 14.76C155.681 15.0533 155.035 15.2 154.301 15.2ZM154.601 13.5C155.495 13.5 156.215 13.2 156.761 12.6C157.308 11.9867 157.581 11.2067 157.581 10.26C157.581 9.60667 157.455 9.04 157.201 8.56C156.961 8.06667 156.615 7.68667 156.161 7.42C155.708 7.14 155.181 7 154.581 7C153.981 7 153.448 7.14 152.981 7.42C152.528 7.7 152.168 8.08667 151.901 8.58C151.648 9.06 151.521 9.61333 151.521 10.24C151.521 10.88 151.648 11.4467 151.901 11.94C152.168 12.42 152.535 12.8 153.001 13.08C153.468 13.36 154.001 13.5 154.601 13.5ZM157.461 15V12.44L157.801 10.12L157.461 7.82V5.5H159.281V15H157.461ZM168.622 15V9.46C168.622 8.74 168.395 8.14667 167.942 7.68C167.489 7.21333 166.902 6.98 166.182 6.98C165.702 6.98 165.275 7.08667 164.902 7.3C164.529 7.51333 164.235 7.80667 164.022 8.18C163.809 8.55333 163.702 8.98 163.702 9.46L162.962 9.04C162.962 8.32 163.122 7.68 163.442 7.12C163.762 6.56 164.209 6.12 164.782 5.8C165.355 5.46667 166.002 5.3 166.722 5.3C167.442 5.3 168.075 5.48 168.622 5.84C169.182 6.2 169.622 6.67333 169.942 7.26C170.262 7.83333 170.422 8.44667 170.422 9.1V15H168.622ZM161.902 15V5.5H163.702V15H161.902ZM181.059 15.2C180.193 15.2 179.406 14.9867 178.699 14.56C177.993 14.12 177.433 13.5267 177.019 12.78C176.619 12.0333 176.419 11.1933 176.419 10.26C176.419 9.32667 176.619 8.48667 177.019 7.74C177.433 6.99333 177.986 6.4 178.679 5.96C179.386 5.52 180.179 5.3 181.059 5.3C181.779 5.3 182.419 5.45333 182.979 5.76C183.553 6.05333 184.013 6.46667 184.359 7C184.706 7.52 184.899 8.12667 184.939 8.82V11.68C184.899 12.36 184.706 12.9667 184.359 13.5C184.026 14.0333 183.573 14.4533 182.999 14.76C182.439 15.0533 181.793 15.2 181.059 15.2ZM181.359 13.5C182.253 13.5 182.973 13.2 183.519 12.6C184.066 11.9867 184.339 11.2067 184.339 10.26C184.339 9.60667 184.213 9.04 183.959 8.56C183.719 8.06667 183.373 7.68667 182.919 7.42C182.466 7.14 181.939 7 181.339 7C180.739 7 180.206 7.14 179.739 7.42C179.286 7.7 178.926 8.08667 178.659 8.58C178.406 9.06 178.279 9.61333 178.279 10.24C178.279 10.88 178.406 11.4467 178.659 11.94C178.926 12.42 179.293 12.8 179.759 13.08C180.226 13.36 180.759 13.5 181.359 13.5ZM184.219 15V12.44L184.559 10.12L184.219 7.82V5.5H186.039V15H184.219ZM193 15.2C192.067 15.2 191.22 14.98 190.46 14.54C189.713 14.1 189.12 13.5067 188.68 12.76C188.253 12 188.04 11.16 188.04 10.24C188.04 9.30667 188.253 8.46667 188.68 7.72C189.12 6.97333 189.713 6.38667 190.46 5.96C191.22 5.52 192.067 5.3 193 5.3C193.733 5.3 194.413 5.44 195.04 5.72C195.667 5.98667 196.207 6.38 196.66 6.9L195.46 8.1C195.167 7.75333 194.807 7.49333 194.38 7.32C193.967 7.13333 193.507 7.04 193 7.04C192.4 7.04 191.867 7.18 191.4 7.46C190.933 7.72667 190.567 8.1 190.3 8.58C190.033 9.06 189.9 9.61333 189.9 10.24C189.9 10.8667 190.033 11.42 190.3 11.9C190.567 12.38 190.933 12.76 191.4 13.04C191.867 13.32 192.4 13.46 193 13.46C193.507 13.46 193.967 13.3733 194.38 13.2C194.807 13.0133 195.173 12.7467 195.48 12.4L196.66 13.6C196.22 14.1067 195.68 14.5 195.04 14.78C194.413 15.06 193.733 15.2 193 15.2ZM202.59 15.2C201.656 15.2 200.81 14.98 200.05 14.54C199.303 14.1 198.71 13.5067 198.27 12.76C197.843 12 197.63 11.16 197.63 10.24C197.63 9.30667 197.843 8.46667 198.27 7.72C198.71 6.97333 199.303 6.38667 200.05 5.96C200.81 5.52 201.656 5.3 202.59 5.3C203.323 5.3 204.003 5.44 204.63 5.72C205.256 5.98667 205.796 6.38 206.25 6.9L205.05 8.1C204.756 7.75333 204.396 7.49333 203.97 7.32C203.556 7.13333 203.096 7.04 202.59 7.04C201.99 7.04 201.456 7.18 200.99 7.46C200.523 7.72667 200.156 8.1 199.89 8.58C199.623 9.06 199.49 9.61333 199.49 10.24C199.49 10.8667 199.623 11.42 199.89 11.9C200.156 12.38 200.523 12.76 200.99 13.04C201.456 13.32 201.99 13.46 202.59 13.46C203.096 13.46 203.556 13.3733 203.97 13.2C204.396 13.0133 204.763 12.7467 205.07 12.4L206.25 13.6C205.81 14.1067 205.27 14.5 204.63 14.78C204.003 15.06 203.323 15.2 202.59 15.2ZM212.18 15.2C211.246 15.2 210.406 14.98 209.66 14.54C208.913 14.1 208.32 13.5067 207.88 12.76C207.44 12 207.22 11.1533 207.22 10.22C207.22 9.3 207.44 8.47333 207.88 7.74C208.32 6.99333 208.913 6.4 209.66 5.96C210.406 5.52 211.246 5.3 212.18 5.3C213.1 5.3 213.933 5.52 214.68 5.96C215.44 6.38667 216.04 6.97333 216.48 7.72C216.92 8.46667 217.14 9.3 217.14 10.22C217.14 11.1533 216.92 12 216.48 12.76C216.04 13.5067 215.44 14.1 214.68 14.54C213.933 14.98 213.1 15.2 212.18 15.2ZM212.18 13.46C212.78 13.46 213.313 13.32 213.78 13.04C214.246 12.76 214.613 12.38 214.88 11.9C215.146 11.4067 215.28 10.8467 215.28 10.22C215.28 9.60667 215.14 9.06 214.86 8.58C214.593 8.1 214.226 7.72667 213.76 7.46C213.306 7.18 212.78 7.04 212.18 7.04C211.58 7.04 211.046 7.18 210.58 7.46C210.113 7.72667 209.746 8.1 209.48 8.58C209.213 9.06 209.08 9.60667 209.08 10.22C209.08 10.8467 209.213 11.4067 209.48 11.9C209.746 12.38 210.113 12.76 210.58 13.04C211.046 13.32 211.58 13.46 212.18 13.46ZM222.988 15.2C222.214 15.2 221.514 15.0267 220.888 14.68C220.274 14.32 219.794 13.8267 219.448 13.2C219.101 12.5733 218.928 11.8467 218.928 11.02V5.5H220.728V10.94C220.728 11.46 220.814 11.9133 220.988 12.3C221.174 12.6733 221.441 12.96 221.788 13.16C222.134 13.36 222.541 13.46 223.008 13.46C223.714 13.46 224.268 13.24 224.668 12.8C225.068 12.3467 225.268 11.7267 225.268 10.94V5.5H227.068V11.02C227.068 11.8467 226.894 12.5733 226.548 13.2C226.201 13.8267 225.721 14.32 225.108 14.68C224.508 15.0267 223.801 15.2 222.988 15.2ZM236.2 15V9.46C236.2 8.74 235.973 8.14667 235.52 7.68C235.067 7.21333 234.48 6.98 233.76 6.98C233.28 6.98 232.853 7.08667 232.48 7.3C232.107 7.51333 231.813 7.80667 231.6 8.18C231.387 8.55333 231.28 8.98 231.28 9.46L230.54 9.04C230.54 8.32 230.7 7.68 231.02 7.12C231.34 6.56 231.787 6.12 232.36 5.8C232.933 5.46667 233.58 5.3 234.3 5.3C235.02 5.3 235.653 5.48 236.2 5.84C236.76 6.2 237.2 6.67333 237.52 7.26C237.84 7.83333 238 8.44667 238 9.1V15H236.2ZM229.48 15V5.5H231.28V15H229.48ZM241.78 15V1.52H243.58V15H241.78ZM239.44 7.14V5.5H245.92V7.14H239.44ZM0.32 40V30.5H2.12V40H0.32ZM2.12 34.58L1.44 34.28C1.44 33.0667 1.72 32.1 2.28 31.38C2.84 30.66 3.64667 30.3 4.7 30.3C5.18 30.3 5.61333 30.3867 6 30.56C6.38667 30.72 6.74667 30.9933 7.08 31.38L5.9 32.6C5.7 32.3867 5.48 32.2333 5.24 32.14C5 32.0467 4.72 32 4.4 32C3.73333 32 3.18667 32.2133 2.76 32.64C2.33333 33.0667 2.12 33.7133 2.12 34.58ZM12.4348 40.2C11.4882 40.2 10.6348 39.9867 9.87484 39.56C9.11484 39.12 8.51484 38.5267 8.07484 37.78C7.63484 37.0333 7.41484 36.1867 7.41484 35.24C7.41484 34.3067 7.62818 33.4667 8.05484 32.72C8.49484 31.9733 9.08151 31.3867 9.81484 30.96C10.5615 30.52 11.3948 30.3 12.3148 30.3C13.1948 30.3 13.9682 30.5 14.6348 30.9C15.3148 31.3 15.8415 31.8533 16.2148 32.56C16.6015 33.2667 16.7948 34.0667 16.7948 34.96C16.7948 35.0933 16.7882 35.24 16.7748 35.4C16.7615 35.5467 16.7348 35.72 16.6948 35.92H8.67484V34.42H15.7348L15.0748 35C15.0748 34.36 14.9615 33.82 14.7348 33.38C14.5082 32.9267 14.1882 32.58 13.7748 32.34C13.3615 32.0867 12.8615 31.96 12.2748 31.96C11.6615 31.96 11.1215 32.0933 10.6548 32.36C10.1882 32.6267 9.82818 33 9.57484 33.48C9.32151 33.96 9.19484 34.5267 9.19484 35.18C9.19484 35.8467 9.32818 36.4333 9.59484 36.94C9.86151 37.4333 10.2415 37.82 10.7348 38.1C11.2282 38.3667 11.7948 38.5 12.4348 38.5C12.9682 38.5 13.4548 38.4067 13.8948 38.22C14.3482 38.0333 14.7348 37.7533 15.0548 37.38L16.2148 38.56C15.7615 39.0933 15.2015 39.5 14.5348 39.78C13.8815 40.06 13.1815 40.2 12.4348 40.2ZM22.6975 44.18C21.7242 44.18 20.8575 44 20.0975 43.64C19.3508 43.28 18.7508 42.7733 18.2975 42.12L19.4575 40.94C19.8442 41.4333 20.3042 41.8067 20.8375 42.06C21.3708 42.3267 22.0042 42.46 22.7375 42.46C23.7108 42.46 24.4775 42.2 25.0375 41.68C25.6108 41.1733 25.8975 40.4867 25.8975 39.62V37.26L26.2175 35.12L25.8975 33V30.5H27.6975V39.62C27.6975 40.5267 27.4842 41.32 27.0575 42C26.6442 42.68 26.0575 43.2133 25.2975 43.6C24.5508 43.9867 23.6842 44.18 22.6975 44.18ZM22.6975 39.84C21.8308 39.84 21.0508 39.6333 20.3575 39.22C19.6775 38.8067 19.1375 38.24 18.7375 37.52C18.3375 36.7867 18.1375 35.9667 18.1375 35.06C18.1375 34.1533 18.3375 33.3467 18.7375 32.64C19.1375 31.92 19.6775 31.3533 20.3575 30.94C21.0508 30.5133 21.8308 30.3 22.6975 30.3C23.4442 30.3 24.1042 30.4467 24.6775 30.74C25.2508 31.0333 25.7042 31.4467 26.0375 31.98C26.3842 32.5 26.5708 33.1133 26.5975 33.82V36.34C26.5575 37.0333 26.3642 37.6467 26.0175 38.18C25.6842 38.7 25.2308 39.1067 24.6575 39.4C24.0842 39.6933 23.4308 39.84 22.6975 39.84ZM23.0575 38.14C23.6442 38.14 24.1575 38.0133 24.5975 37.76C25.0508 37.5067 25.3975 37.1533 25.6375 36.7C25.8775 36.2333 25.9975 35.6933 25.9975 35.08C25.9975 34.4667 25.8708 33.9333 25.6175 33.48C25.3775 33.0133 25.0375 32.6533 24.5975 32.4C24.1575 32.1333 23.6375 32 23.0375 32C22.4375 32 21.9108 32.1333 21.4575 32.4C21.0042 32.6533 20.6442 33.0133 20.3775 33.48C20.1242 33.9333 19.9975 34.46 19.9975 35.06C19.9975 35.66 20.1242 36.1933 20.3775 36.66C20.6442 37.1267 21.0042 37.4933 21.4575 37.76C21.9242 38.0133 22.4575 38.14 23.0575 38.14ZM30.3595 40V30.5H32.1595V40H30.3595ZM31.2595 28.6C30.9262 28.6 30.6529 28.4933 30.4395 28.28C30.2262 28.0533 30.1195 27.7733 30.1195 27.44C30.1195 27.12 30.2262 26.8533 30.4395 26.64C30.6529 26.4133 30.9262 26.3 31.2595 26.3C31.5929 26.3 31.8662 26.4133 32.0795 26.64C32.2929 26.8533 32.3995 27.12 32.3995 27.44C32.3995 27.7733 32.2929 28.0533 32.0795 28.28C31.8662 28.4933 31.5929 28.6 31.2595 28.6ZM37.8322 40.2C37.2989 40.2 36.7922 40.1333 36.3122 40C35.8455 39.8533 35.4122 39.6533 35.0122 39.4C34.6122 39.1333 34.2655 38.82 33.9722 38.46L35.1322 37.3C35.4789 37.7267 35.8789 38.0467 36.3322 38.26C36.7855 38.46 37.2922 38.56 37.8522 38.56C38.4122 38.56 38.8455 38.4667 39.1522 38.28C39.4589 38.08 39.6122 37.8067 39.6122 37.46C39.6122 37.1133 39.4855 36.8467 39.2322 36.66C38.9922 36.46 38.6789 36.3 38.2922 36.18C37.9055 36.0467 37.4922 35.92 37.0522 35.8C36.6255 35.6667 36.2189 35.5 35.8322 35.3C35.4455 35.1 35.1255 34.8267 34.8722 34.48C34.6322 34.1333 34.5122 33.6733 34.5122 33.1C34.5122 32.5267 34.6522 32.0333 34.9322 31.62C35.2122 31.1933 35.5989 30.8667 36.0922 30.64C36.5989 30.4133 37.2055 30.3 37.9122 30.3C38.6589 30.3 39.3189 30.4333 39.8922 30.7C40.4789 30.9533 40.9589 31.34 41.3322 31.86L40.1722 33.02C39.9055 32.6733 39.5722 32.4067 39.1722 32.22C38.7855 32.0333 38.3455 31.94 37.8522 31.94C37.3322 31.94 36.9322 32.0333 36.6522 32.22C36.3855 32.3933 36.2522 32.64 36.2522 32.96C36.2522 33.28 36.3722 33.5267 36.6122 33.7C36.8522 33.8733 37.1655 34.02 37.5522 34.14C37.9522 34.26 38.3655 34.3867 38.7922 34.52C39.2189 34.64 39.6255 34.8067 40.0122 35.02C40.3989 35.2333 40.7122 35.52 40.9522 35.88C41.2055 36.24 41.3322 36.7133 41.3322 37.3C41.3322 38.1933 41.0122 38.9 40.3722 39.42C39.7455 39.94 38.8989 40.2 37.8322 40.2ZM44.8073 40V26.52H46.6073V40H44.8073ZM42.4673 32.14V30.5H48.9473V32.14H42.4673ZM54.8177 40.2C53.871 40.2 53.0177 39.9867 52.2577 39.56C51.4977 39.12 50.8977 38.5267 50.4577 37.78C50.0177 37.0333 49.7977 36.1867 49.7977 35.24C49.7977 34.3067 50.011 33.4667 50.4377 32.72C50.8777 31.9733 51.4643 31.3867 52.1977 30.96C52.9443 30.52 53.7777 30.3 54.6977 30.3C55.5777 30.3 56.351 30.5 57.0177 30.9C57.6977 31.3 58.2243 31.8533 58.5977 32.56C58.9843 33.2667 59.1777 34.0667 59.1777 34.96C59.1777 35.0933 59.171 35.24 59.1577 35.4C59.1443 35.5467 59.1177 35.72 59.0777 35.92H51.0577V34.42H58.1177L57.4577 35C57.4577 34.36 57.3443 33.82 57.1177 33.38C56.891 32.9267 56.571 32.58 56.1577 32.34C55.7443 32.0867 55.2443 31.96 54.6577 31.96C54.0443 31.96 53.5043 32.0933 53.0377 32.36C52.571 32.6267 52.211 33 51.9577 33.48C51.7043 33.96 51.5777 34.5267 51.5777 35.18C51.5777 35.8467 51.711 36.4333 51.9777 36.94C52.2443 37.4333 52.6243 37.82 53.1177 38.1C53.611 38.3667 54.1777 38.5 54.8177 38.5C55.351 38.5 55.8377 38.4067 56.2777 38.22C56.731 38.0333 57.1177 37.7533 57.4377 37.38L58.5977 38.56C58.1443 39.0933 57.5843 39.5 56.9177 39.78C56.2643 40.06 55.5643 40.2 54.8177 40.2ZM61.1403 40V30.5H62.9403V40H61.1403ZM62.9403 34.58L62.2603 34.28C62.2603 33.0667 62.5403 32.1 63.1003 31.38C63.6603 30.66 64.467 30.3 65.5203 30.3C66.0003 30.3 66.4336 30.3867 66.8203 30.56C67.207 30.72 67.567 30.9933 67.9003 31.38L66.7203 32.6C66.5203 32.3867 66.3003 32.2333 66.0603 32.14C65.8203 32.0467 65.5403 32 65.2203 32C64.5536 32 64.007 32.2133 63.5803 32.64C63.1536 33.0667 62.9403 33.7133 62.9403 34.58ZM68.0763 42.2L69.3163 39.82L69.9563 39.66C69.8896 39.8067 69.8029 39.9267 69.6963 40.02C69.6029 40.1133 69.4829 40.16 69.3363 40.16C69.0563 40.16 68.7963 40.0467 68.5563 39.82C68.3296 39.58 68.2163 39.2867 68.2163 38.94C68.2163 38.5533 68.3429 38.2333 68.5963 37.98C68.8496 37.7133 69.1696 37.58 69.5563 37.58C69.9029 37.58 70.2096 37.7133 70.4763 37.98C70.7429 38.2333 70.8763 38.5533 70.8763 38.94C70.8763 39.0867 70.8429 39.2667 70.7763 39.48C70.7229 39.68 70.6096 39.94 70.4363 40.26L69.1163 42.76L68.0763 42.2ZM80.7642 40.08L76.6442 30.5H78.6442L81.7042 38H81.0642L84.2842 30.5H86.2842L81.8442 40.08H80.7642ZM78.0442 43.98L80.8442 38.24L81.8442 40.08L80.0442 43.98H78.0442ZM91.7303 40.2C90.797 40.2 89.957 39.98 89.2103 39.54C88.4636 39.1 87.8703 38.5067 87.4303 37.76C86.9903 37 86.7703 36.1533 86.7703 35.22C86.7703 34.3 86.9903 33.4733 87.4303 32.74C87.8703 31.9933 88.4636 31.4 89.2103 30.96C89.957 30.52 90.797 30.3 91.7303 30.3C92.6503 30.3 93.4836 30.52 94.2303 30.96C94.9903 31.3867 95.5903 31.9733 96.0303 32.72C96.4703 33.4667 96.6903 34.3 96.6903 35.22C96.6903 36.1533 96.4703 37 96.0303 37.76C95.5903 38.5067 94.9903 39.1 94.2303 39.54C93.4836 39.98 92.6503 40.2 91.7303 40.2ZM91.7303 38.46C92.3303 38.46 92.8636 38.32 93.3303 38.04C93.797 37.76 94.1636 37.38 94.4303 36.9C94.697 36.4067 94.8303 35.8467 94.8303 35.22C94.8303 34.6067 94.6903 34.06 94.4103 33.58C94.1436 33.1 93.777 32.7267 93.3103 32.46C92.857 32.18 92.3303 32.04 91.7303 32.04C91.1303 32.04 90.597 32.18 90.1303 32.46C89.6636 32.7267 89.297 33.1 89.0303 33.58C88.7636 34.06 88.6303 34.6067 88.6303 35.22C88.6303 35.8467 88.7636 36.4067 89.0303 36.9C89.297 37.38 89.6636 37.76 90.1303 38.04C90.597 38.32 91.1303 38.46 91.7303 38.46ZM102.538 40.2C101.765 40.2 101.065 40.0267 100.438 39.68C99.8251 39.32 99.3451 38.8267 98.9984 38.2C98.6518 37.5733 98.4784 36.8467 98.4784 36.02V30.5H100.278V35.94C100.278 36.46 100.365 36.9133 100.538 37.3C100.725 37.6733 100.992 37.96 101.338 38.16C101.685 38.36 102.092 38.46 102.558 38.46C103.265 38.46 103.818 38.24 104.218 37.8C104.618 37.3467 104.818 36.7267 104.818 35.94V30.5H106.618V36.02C106.618 36.8467 106.445 37.5733 106.098 38.2C105.752 38.8267 105.272 39.32 104.658 39.68C104.058 40.0267 103.352 40.2 102.538 40.2ZM117.531 40.2C116.598 40.2 115.751 39.98 114.991 39.54C114.244 39.1 113.651 38.5067 113.211 37.76C112.784 37 112.571 36.16 112.571 35.24C112.571 34.3067 112.784 33.4667 113.211 32.72C113.651 31.9733 114.244 31.3867 114.991 30.96C115.751 30.52 116.598 30.3 117.531 30.3C118.264 30.3 118.944 30.44 119.571 30.72C120.198 30.9867 120.738 31.38 121.191 31.9L119.991 33.1C119.698 32.7533 119.338 32.4933 118.911 32.32C118.498 32.1333 118.038 32.04 117.531 32.04C116.931 32.04 116.398 32.18 115.931 32.46C115.464 32.7267 115.098 33.1 114.831 33.58C114.564 34.06 114.431 34.6133 114.431 35.24C114.431 35.8667 114.564 36.42 114.831 36.9C115.098 37.38 115.464 37.76 115.931 38.04C116.398 38.32 116.931 38.46 117.531 38.46C118.038 38.46 118.498 38.3733 118.911 38.2C119.338 38.0133 119.704 37.7467 120.011 37.4L121.191 38.6C120.751 39.1067 120.211 39.5 119.571 39.78C118.944 40.06 118.264 40.2 117.531 40.2ZM126.821 40.2C125.954 40.2 125.168 39.9867 124.461 39.56C123.754 39.12 123.194 38.5267 122.781 37.78C122.381 37.0333 122.181 36.1933 122.181 35.26C122.181 34.3267 122.381 33.4867 122.781 32.74C123.194 31.9933 123.748 31.4 124.441 30.96C125.148 30.52 125.941 30.3 126.821 30.3C127.541 30.3 128.181 30.4533 128.741 30.76C129.314 31.0533 129.774 31.4667 130.121 32C130.468 32.52 130.661 33.1267 130.701 33.82V36.68C130.661 37.36 130.468 37.9667 130.121 38.5C129.788 39.0333 129.334 39.4533 128.761 39.76C128.201 40.0533 127.554 40.2 126.821 40.2ZM127.121 38.5C128.014 38.5 128.734 38.2 129.281 37.6C129.828 36.9867 130.101 36.2067 130.101 35.26C130.101 34.6067 129.974 34.04 129.721 33.56C129.481 33.0667 129.134 32.6867 128.681 32.42C128.228 32.14 127.701 32 127.101 32C126.501 32 125.968 32.14 125.501 32.42C125.048 32.7 124.688 33.0867 124.421 33.58C124.168 34.06 124.041 34.6133 124.041 35.24C124.041 35.88 124.168 36.4467 124.421 36.94C124.688 37.42 125.054 37.8 125.521 38.08C125.988 38.36 126.521 38.5 127.121 38.5ZM129.981 40V37.44L130.321 35.12L129.981 32.82V30.5H131.801V40H129.981ZM141.142 40V34.46C141.142 33.74 140.915 33.1467 140.462 32.68C140.008 32.2133 139.422 31.98 138.702 31.98C138.222 31.98 137.795 32.0867 137.422 32.3C137.048 32.5133 136.755 32.8067 136.542 33.18C136.328 33.5533 136.222 33.98 136.222 34.46L135.482 34.04C135.482 33.32 135.642 32.68 135.962 32.12C136.282 31.56 136.728 31.12 137.302 30.8C137.875 30.4667 138.522 30.3 139.242 30.3C139.962 30.3 140.595 30.48 141.142 30.84C141.702 31.2 142.142 31.6733 142.462 32.26C142.782 32.8333 142.942 33.4467 142.942 34.1V40H141.142ZM134.422 40V30.5H136.222V40H134.422ZM152.559 40.2C152.025 40.2 151.519 40.1333 151.039 40C150.572 39.8533 150.139 39.6533 149.739 39.4C149.339 39.1333 148.992 38.82 148.699 38.46L149.859 37.3C150.205 37.7267 150.605 38.0467 151.059 38.26C151.512 38.46 152.019 38.56 152.579 38.56C153.139 38.56 153.572 38.4667 153.879 38.28C154.185 38.08 154.339 37.8067 154.339 37.46C154.339 37.1133 154.212 36.8467 153.959 36.66C153.719 36.46 153.405 36.3 153.019 36.18C152.632 36.0467 152.219 35.92 151.779 35.8C151.352 35.6667 150.945 35.5 150.559 35.3C150.172 35.1 149.852 34.8267 149.599 34.48C149.359 34.1333 149.239 33.6733 149.239 33.1C149.239 32.5267 149.379 32.0333 149.659 31.62C149.939 31.1933 150.325 30.8667 150.819 30.64C151.325 30.4133 151.932 30.3 152.639 30.3C153.385 30.3 154.045 30.4333 154.619 30.7C155.205 30.9533 155.685 31.34 156.059 31.86L154.899 33.02C154.632 32.6733 154.299 32.4067 153.899 32.22C153.512 32.0333 153.072 31.94 152.579 31.94C152.059 31.94 151.659 32.0333 151.379 32.22C151.112 32.3933 150.979 32.64 150.979 32.96C150.979 33.28 151.099 33.5267 151.339 33.7C151.579 33.8733 151.892 34.02 152.279 34.14C152.679 34.26 153.092 34.3867 153.519 34.52C153.945 34.64 154.352 34.8067 154.739 35.02C155.125 35.2333 155.439 35.52 155.679 35.88C155.932 36.24 156.059 36.7133 156.059 37.3C156.059 38.1933 155.739 38.9 155.099 39.42C154.472 39.94 153.625 40.2 152.559 40.2ZM158.094 40V30.5H159.894V40H158.094ZM158.994 28.6C158.661 28.6 158.387 28.4933 158.174 28.28C157.961 28.0533 157.854 27.7733 157.854 27.44C157.854 27.12 157.961 26.8533 158.174 26.64C158.387 26.4133 158.661 26.3 158.994 26.3C159.327 26.3 159.601 26.4133 159.814 26.64C160.027 26.8533 160.134 27.12 160.134 27.44C160.134 27.7733 160.027 28.0533 159.814 28.28C159.601 28.4933 159.327 28.6 158.994 28.6ZM166.487 44.18C165.513 44.18 164.647 44 163.887 43.64C163.14 43.28 162.54 42.7733 162.087 42.12L163.247 40.94C163.633 41.4333 164.093 41.8067 164.627 42.06C165.16 42.3267 165.793 42.46 166.527 42.46C167.5 42.46 168.267 42.2 168.827 41.68C169.4 41.1733 169.687 40.4867 169.687 39.62V37.26L170.007 35.12L169.687 33V30.5H171.487V39.62C171.487 40.5267 171.273 41.32 170.847 42C170.433 42.68 169.847 43.2133 169.087 43.6C168.34 43.9867 167.473 44.18 166.487 44.18ZM166.487 39.84C165.62 39.84 164.84 39.6333 164.147 39.22C163.467 38.8067 162.927 38.24 162.527 37.52C162.127 36.7867 161.927 35.9667 161.927 35.06C161.927 34.1533 162.127 33.3467 162.527 32.64C162.927 31.92 163.467 31.3533 164.147 30.94C164.84 30.5133 165.62 30.3 166.487 30.3C167.233 30.3 167.893 30.4467 168.467 30.74C169.04 31.0333 169.493 31.4467 169.827 31.98C170.173 32.5 170.36 33.1133 170.387 33.82V36.34C170.347 37.0333 170.153 37.6467 169.807 38.18C169.473 38.7 169.02 39.1067 168.447 39.4C167.873 39.6933 167.22 39.84 166.487 39.84ZM166.847 38.14C167.433 38.14 167.947 38.0133 168.387 37.76C168.84 37.5067 169.187 37.1533 169.427 36.7C169.667 36.2333 169.787 35.6933 169.787 35.08C169.787 34.4667 169.66 33.9333 169.407 33.48C169.167 33.0133 168.827 32.6533 168.387 32.4C167.947 32.1333 167.427 32 166.827 32C166.227 32 165.7 32.1333 165.247 32.4C164.793 32.6533 164.433 33.0133 164.167 33.48C163.913 33.9333 163.787 34.46 163.787 35.06C163.787 35.66 163.913 36.1933 164.167 36.66C164.433 37.1267 164.793 37.4933 165.247 37.76C165.713 38.0133 166.247 38.14 166.847 38.14ZM180.849 40V34.46C180.849 33.74 180.622 33.1467 180.169 32.68C179.715 32.2133 179.129 31.98 178.409 31.98C177.929 31.98 177.502 32.0867 177.129 32.3C176.755 32.5133 176.462 32.8067 176.249 33.18C176.035 33.5533 175.929 33.98 175.929 34.46L175.189 34.04C175.189 33.32 175.349 32.68 175.669 32.12C175.989 31.56 176.435 31.12 177.009 30.8C177.582 30.4667 178.229 30.3 178.949 30.3C179.669 30.3 180.302 30.48 180.849 30.84C181.409 31.2 181.849 31.6733 182.169 32.26C182.489 32.8333 182.649 33.4467 182.649 34.1V40H180.849ZM174.129 40V30.5H175.929V40H174.129ZM193.066 40.2C192.292 40.2 191.592 40.0267 190.966 39.68C190.352 39.32 189.872 38.8267 189.526 38.2C189.179 37.5733 189.006 36.8467 189.006 36.02V30.5H190.806V35.94C190.806 36.46 190.892 36.9133 191.066 37.3C191.252 37.6733 191.519 37.96 191.866 38.16C192.212 38.36 192.619 38.46 193.086 38.46C193.792 38.46 194.346 38.24 194.746 37.8C195.146 37.3467 195.346 36.7267 195.346 35.94V30.5H197.146V36.02C197.146 36.8467 196.972 37.5733 196.626 38.2C196.279 38.8267 195.799 39.32 195.186 39.68C194.586 40.0267 193.879 40.2 193.066 40.2ZM204.558 40.2C203.838 40.2 203.185 40.0533 202.598 39.76C202.025 39.4533 201.565 39.0333 201.218 38.5C200.872 37.9667 200.678 37.36 200.638 36.68V33.82C200.678 33.1267 200.872 32.52 201.218 32C201.578 31.4667 202.045 31.0533 202.618 30.76C203.205 30.4533 203.852 30.3 204.558 30.3C205.425 30.3 206.205 30.52 206.898 30.96C207.605 31.4 208.158 31.9933 208.558 32.74C208.958 33.4867 209.158 34.3267 209.158 35.26C209.158 36.1933 208.958 37.0333 208.558 37.78C208.158 38.5267 207.605 39.12 206.898 39.56C206.205 39.9867 205.425 40.2 204.558 40.2ZM204.258 38.5C204.858 38.5 205.385 38.36 205.838 38.08C206.292 37.8 206.652 37.42 206.918 36.94C207.185 36.4467 207.318 35.88 207.318 35.24C207.318 34.6133 207.185 34.0533 206.918 33.56C206.652 33.0667 206.292 32.6867 205.838 32.42C205.385 32.14 204.865 32 204.278 32C203.678 32 203.152 32.14 202.698 32.42C202.245 32.6867 201.892 33.0667 201.638 33.56C201.385 34.0533 201.258 34.62 201.258 35.26C201.258 35.8867 201.378 36.4467 201.618 36.94C201.872 37.42 202.225 37.8 202.678 38.08C203.145 38.36 203.672 38.5 204.258 38.5ZM199.558 43.98V30.5H201.358V33L201.018 35.3L201.358 37.62V43.98H199.558ZM222.079 40V34.46C222.079 33.74 221.852 33.1467 221.399 32.68C220.946 32.2133 220.359 31.98 219.639 31.98C219.159 31.98 218.732 32.0867 218.359 32.3C217.986 32.5133 217.692 32.8067 217.479 33.18C217.266 33.5533 217.159 33.98 217.159 34.46L216.419 34.04C216.419 33.32 216.579 32.68 216.899 32.12C217.219 31.56 217.666 31.12 218.239 30.8C218.812 30.4667 219.459 30.3 220.179 30.3C220.899 30.3 221.532 30.46 222.079 30.78C222.639 31.1 223.079 31.5467 223.399 32.12C223.719 32.6933 223.879 33.3533 223.879 34.1V40H222.079ZM215.359 40V25.72H217.159V40H215.359ZM230.716 40.2C229.769 40.2 228.916 39.9867 228.156 39.56C227.396 39.12 226.796 38.5267 226.356 37.78C225.916 37.0333 225.696 36.1867 225.696 35.24C225.696 34.3067 225.909 33.4667 226.336 32.72C226.776 31.9733 227.363 31.3867 228.096 30.96C228.843 30.52 229.676 30.3 230.596 30.3C231.476 30.3 232.249 30.5 232.916 30.9C233.596 31.3 234.123 31.8533 234.496 32.56C234.883 33.2667 235.076 34.0667 235.076 34.96C235.076 35.0933 235.069 35.24 235.056 35.4C235.043 35.5467 235.016 35.72 234.976 35.92H226.956V34.42H234.016L233.356 35C233.356 34.36 233.243 33.82 233.016 33.38C232.789 32.9267 232.469 32.58 232.056 32.34C231.643 32.0867 231.143 31.96 230.556 31.96C229.943 31.96 229.403 32.0933 228.936 32.36C228.469 32.6267 228.109 33 227.856 33.48C227.603 33.96 227.476 34.5267 227.476 35.18C227.476 35.8467 227.609 36.4333 227.876 36.94C228.143 37.4333 228.523 37.82 229.016 38.1C229.509 38.3667 230.076 38.5 230.716 38.5C231.249 38.5 231.736 38.4067 232.176 38.22C232.629 38.0333 233.016 37.7533 233.336 37.38L234.496 38.56C234.043 39.0933 233.483 39.5 232.816 39.78C232.163 40.06 231.463 40.2 230.716 40.2ZM237.039 40V30.5H238.839V40H237.039ZM238.839 34.58L238.159 34.28C238.159 33.0667 238.439 32.1 238.999 31.38C239.559 30.66 240.365 30.3 241.419 30.3C241.899 30.3 242.332 30.3867 242.719 30.56C243.105 30.72 243.465 30.9933 243.799 31.38L242.619 32.6C242.419 32.3867 242.199 32.2333 241.959 32.14C241.719 32.0467 241.439 32 241.119 32C240.452 32 239.905 32.2133 239.479 32.64C239.052 33.0667 238.839 33.7133 238.839 34.58ZM249.154 40.2C248.207 40.2 247.354 39.9867 246.594 39.56C245.834 39.12 245.234 38.5267 244.794 37.78C244.354 37.0333 244.134 36.1867 244.134 35.24C244.134 34.3067 244.347 33.4667 244.774 32.72C245.214 31.9733 245.8 31.3867 246.534 30.96C247.28 30.52 248.114 30.3 249.034 30.3C249.914 30.3 250.687 30.5 251.354 30.9C252.034 31.3 252.56 31.8533 252.934 32.56C253.32 33.2667 253.514 34.0667 253.514 34.96C253.514 35.0933 253.507 35.24 253.494 35.4C253.48 35.5467 253.454 35.72 253.414 35.92H245.394V34.42H252.454L251.794 35C251.794 34.36 251.68 33.82 251.454 33.38C251.227 32.9267 250.907 32.58 250.494 32.34C250.08 32.0867 249.58 31.96 248.994 31.96C248.38 31.96 247.84 32.0933 247.374 32.36C246.907 32.6267 246.547 33 246.294 33.48C246.04 33.96 245.914 34.5267 245.914 35.18C245.914 35.8467 246.047 36.4333 246.314 36.94C246.58 37.4333 246.96 37.82 247.454 38.1C247.947 38.3667 248.514 38.5 249.154 38.5C249.687 38.5 250.174 38.4067 250.614 38.22C251.067 38.0333 251.454 37.7533 251.774 37.38L252.934 38.56C252.48 39.0933 251.92 39.5 251.254 39.78C250.6 40.06 249.9 40.2 249.154 40.2ZM256.016 35.6L255.756 25.72H257.676L257.416 35.6H256.016ZM256.696 40.2C256.323 40.2 256.016 40.0733 255.776 39.82C255.536 39.5667 255.416 39.2533 255.416 38.88C255.416 38.5067 255.536 38.2 255.776 37.96C256.016 37.7067 256.323 37.58 256.696 37.58C257.083 37.58 257.396 37.7067 257.636 37.96C257.876 38.2 257.996 38.5067 257.996 38.88C257.996 39.2533 257.876 39.5667 257.636 39.82C257.396 40.0733 257.083 40.2 256.696 40.2Z" fill="#22577A"/>
</svg>
