<svg width="174" height="57" viewBox="0 0 174 57" fill="none" xmlns="http://www.w3.org/2000/svg">
<path d="M1.184 21V1.4H5.216V17.108H14.638V21H1.184ZM22.9081 21.336C20.8734 21.336 19.2681 20.6733 18.0921 19.348C16.9161 18.0133 16.3281 16.184 16.3281 13.86C16.3281 12.3293 16.5941 11.004 17.1261 9.884C17.6674 8.75467 18.4281 7.88667 19.4081 7.28C20.3974 6.664 21.5641 6.356 22.9081 6.356C24.2427 6.356 25.3954 6.664 26.3661 7.28C27.3461 7.88667 28.1021 8.75 28.6341 9.87C29.1661 10.99 29.4321 12.32 29.4321 13.86C29.4321 15.4 29.1707 16.73 28.6481 17.85C28.1254 18.97 27.3741 19.8333 26.3941 20.44C25.4141 21.0373 24.2521 21.336 22.9081 21.336ZM22.9081 17.64C23.7667 17.64 24.4294 17.3087 24.8961 16.646C25.3721 15.9833 25.6101 15.0547 25.6101 13.86C25.6101 12.656 25.3674 11.7227 24.8821 11.06C24.4061 10.388 23.7481 10.052 22.9081 10.052C22.0587 10.052 21.3914 10.3927 20.9061 11.074C20.4207 11.746 20.1781 12.6747 20.1781 13.86C20.1781 15.036 20.4207 15.96 20.9061 16.632C21.3914 17.304 22.0587 17.64 22.9081 17.64ZM38.3302 26.964L36.1462 23.688C37.5368 23.5853 38.5962 23.4407 39.3242 23.254C40.0615 23.0673 40.5608 22.8013 40.8222 22.456C41.0928 22.12 41.2282 21.6627 41.2282 21.084V20.342C40.5468 21.0047 39.5902 21.336 38.3582 21.336C37.0888 21.336 36.0062 21.0373 35.1102 20.44C34.2142 19.8427 33.5235 18.984 33.0382 17.864C32.5622 16.744 32.3242 15.4 32.3242 13.832C32.3242 12.3293 32.5762 11.018 33.0802 9.898C33.5842 8.778 34.2888 7.91 35.1942 7.294C36.0995 6.66867 37.1588 6.356 38.3722 6.356C38.9788 6.356 39.5248 6.44467 40.0102 6.622C40.5048 6.79 40.9108 7.042 41.2282 7.378V6.692H45.0782V19.418C45.0782 20.762 44.9662 21.8913 44.7422 22.806C44.5182 23.73 44.1495 24.4767 43.6362 25.046C43.1228 25.6153 42.4322 26.0447 41.5642 26.334C40.6962 26.6327 39.6182 26.8427 38.3302 26.964ZM38.9462 17.64C39.4035 17.64 39.8235 17.5513 40.2062 17.374C40.5888 17.1873 40.9295 16.9307 41.2282 16.604V11.102C40.9855 10.794 40.6635 10.542 40.2622 10.346C39.8608 10.15 39.4455 10.052 39.0162 10.052C38.0922 10.052 37.3875 10.374 36.9022 11.018C36.4168 11.662 36.1742 12.6 36.1742 13.832C36.1742 14.6533 36.2815 15.344 36.4962 15.904C36.7108 16.464 37.0235 16.8933 37.4342 17.192C37.8448 17.4907 38.3488 17.64 38.9462 17.64ZM49.377 21V6.692H53.227V21H49.377ZM51.295 5.166C50.6884 5.166 50.1657 4.94667 49.727 4.508C49.2884 4.06933 49.069 3.54667 49.069 2.94C49.069 2.33333 49.2837 1.81533 49.713 1.386C50.1517 0.956666 50.679 0.742 51.295 0.742C51.939 0.742 52.471 0.951999 52.891 1.372C53.3204 1.792 53.535 2.31467 53.535 2.94C53.535 3.556 53.3157 4.08333 52.877 4.522C52.4477 4.95133 51.9204 5.166 51.295 5.166ZM57.5522 21V6.692H61.4022V8.036C61.8595 7.476 62.4102 7.056 63.0542 6.776C63.7075 6.496 64.4495 6.356 65.2802 6.356C66.8388 6.356 68.0568 6.84133 68.9342 7.812C69.8115 8.77333 70.2502 10.1173 70.2502 11.844V21H66.4002V13.426C66.4002 12.2313 66.2135 11.3727 65.8402 10.85C65.4668 10.318 64.8555 10.052 64.0062 10.052C63.1102 10.052 62.4522 10.3227 62.0322 10.864C61.6122 11.396 61.4022 12.2313 61.4022 13.37V21H57.5522ZM85.7606 21.336C84.566 21.336 83.6746 21.0187 83.0866 20.384C82.508 19.74 82.2186 18.7787 82.2186 17.5V10.08H80.2026V6.692H82.2186V2.604L86.0406 0.783998V6.692H89.1906V10.08H86.0406V16.926C86.0406 17.29 86.12 17.5653 86.2786 17.752C86.4466 17.9293 86.7033 18.018 87.0486 18.018C87.7486 18.018 88.5186 17.8173 89.3586 17.416L88.9246 20.692C88.486 20.8973 88.0053 21.056 87.4826 21.168C86.96 21.28 86.386 21.336 85.7606 21.336ZM98.4315 21.336C96.3968 21.336 94.7915 20.6733 93.6155 19.348C92.4395 18.0133 91.8515 16.184 91.8515 13.86C91.8515 12.3293 92.1175 11.004 92.6495 9.884C93.1908 8.75467 93.9515 7.88667 94.9315 7.28C95.9208 6.664 97.0875 6.356 98.4315 6.356C99.7662 6.356 100.919 6.664 101.89 7.28C102.87 7.88667 103.626 8.75 104.158 9.87C104.69 10.99 104.956 12.32 104.956 13.86C104.956 15.4 104.694 16.73 104.172 17.85C103.649 18.97 102.898 19.8333 101.918 20.44C100.938 21.0373 99.7755 21.336 98.4315 21.336ZM98.4315 17.64C99.2902 17.64 99.9528 17.3087 100.42 16.646C100.896 15.9833 101.134 15.0547 101.134 13.86C101.134 12.656 100.891 11.7227 100.406 11.06C99.9295 10.388 99.2715 10.052 98.4315 10.052C97.5822 10.052 96.9148 10.3927 96.4295 11.074C95.9442 11.746 95.7015 12.6747 95.7015 13.86C95.7015 15.036 95.9442 15.96 96.4295 16.632C96.9148 17.304 97.5822 17.64 98.4315 17.64ZM117.478 26.432L119.634 20.79L114.258 6.692H118.234L121.216 14.602C121.29 14.7887 121.37 15.0033 121.454 15.246C121.538 15.4887 121.608 15.722 121.664 15.946C121.72 15.722 121.79 15.4887 121.874 15.246C121.958 15.0033 122.037 14.7887 122.112 14.602L125.066 6.692H129.042L121.468 26.432H117.478ZM137.342 21.336C135.307 21.336 133.702 20.6733 132.526 19.348C131.35 18.0133 130.762 16.184 130.762 13.86C130.762 12.3293 131.028 11.004 131.56 9.884C132.101 8.75467 132.862 7.88667 133.842 7.28C134.831 6.664 135.998 6.356 137.342 6.356C138.676 6.356 139.829 6.664 140.8 7.28C141.78 7.88667 142.536 8.75 143.068 9.87C143.6 10.99 143.866 12.32 143.866 13.86C143.866 15.4 143.604 16.73 143.082 17.85C142.559 18.97 141.808 19.8333 140.828 20.44C139.848 21.0373 138.686 21.336 137.342 21.336ZM137.342 17.64C138.2 17.64 138.863 17.3087 139.33 16.646C139.806 15.9833 140.044 15.0547 140.044 13.86C140.044 12.656 139.801 11.7227 139.316 11.06C138.84 10.388 138.182 10.052 137.342 10.052C136.492 10.052 135.825 10.3927 135.34 11.074C134.854 11.746 134.612 12.6747 134.612 13.86C134.612 15.036 134.854 15.96 135.34 16.632C135.825 17.304 136.492 17.64 137.342 17.64ZM152.261 21.336C150.721 21.336 149.508 20.8507 148.621 19.88C147.734 18.9 147.291 17.556 147.291 15.848V6.692H151.141V14.266C151.141 15.47 151.328 16.3333 151.701 16.856C152.074 17.3787 152.681 17.64 153.521 17.64C154.426 17.64 155.089 17.374 155.509 16.842C155.929 16.3007 156.139 15.4607 156.139 14.322V6.692H159.989V21H156.139V19.67C155.71 20.2113 155.164 20.6267 154.501 20.916C153.838 21.196 153.092 21.336 152.261 21.336ZM164.247 21V6.692H168.097V8.12C168.331 7.62533 168.723 7.21 169.273 6.874C169.833 6.52867 170.398 6.356 170.967 6.356C172.031 6.356 172.927 6.73867 173.655 7.504L173.137 11.018C172.727 10.6633 172.335 10.416 171.961 10.276C171.588 10.136 171.168 10.066 170.701 10.066C170.151 10.066 169.679 10.192 169.287 10.444C168.905 10.6867 168.611 11.046 168.405 11.522C168.2 11.998 168.097 12.572 168.097 13.244V21H164.247ZM5.398 56.336C3.83 56.336 2.58867 55.916 1.674 55.076C0.759333 54.236 0.302 53.102 0.302 51.674C0.302 50.7407 0.54 49.924 1.016 49.224C1.50133 48.524 2.17333 47.9827 3.032 47.6C3.89067 47.208 4.88933 47.012 6.028 47.012C6.63467 47.012 7.22267 47.0633 7.792 47.166C8.37067 47.2687 8.86067 47.4133 9.262 47.6V46.746C9.262 46.0367 9.04267 45.5 8.604 45.136C8.17467 44.7627 7.54933 44.576 6.728 44.576C6.028 44.576 5.30467 44.702 4.558 44.954C3.82067 45.206 3.06 45.5887 2.276 46.102L1.1 43.12C1.94933 42.5507 2.892 42.1167 3.928 41.818C4.97333 41.51 6.03267 41.356 7.106 41.356C9.094 41.356 10.5827 41.818 11.572 42.742C12.5613 43.666 13.056 45.0473 13.056 46.886V56H9.262V54.908C8.80467 55.3747 8.24467 55.7293 7.582 55.972C6.92867 56.2147 6.20067 56.336 5.398 56.336ZM6.35 53.116C6.90067 53.116 7.42333 53.018 7.918 52.822C8.422 52.626 8.87 52.3413 9.262 51.968V50.54C8.88867 50.372 8.478 50.246 8.03 50.162C7.582 50.078 7.12467 50.036 6.658 50.036C5.846 50.036 5.20667 50.1807 4.74 50.47C4.28267 50.75 4.054 51.1467 4.054 51.66C4.054 52.1173 4.25467 52.4767 4.656 52.738C5.05733 52.99 5.622 53.116 6.35 53.116ZM22.9221 56.336C21.5687 56.336 20.3974 56.0327 19.4081 55.426C18.4281 54.8193 17.6674 53.956 17.1261 52.836C16.5941 51.716 16.3281 50.3907 16.3281 48.86C16.3281 47.3293 16.5987 46.004 17.1401 44.884C17.6814 43.7547 18.4467 42.8867 19.4361 42.28C20.4254 41.664 21.5921 41.356 22.9361 41.356C24.4947 41.356 25.7874 41.72 26.8141 42.448C27.8407 43.176 28.5874 44.2493 29.0541 45.668L25.3861 46.9C25.1621 46.3027 24.8401 45.8453 24.4201 45.528C24.0094 45.2013 23.5334 45.038 22.9921 45.038C22.1707 45.038 21.5034 45.388 20.9901 46.088C20.4861 46.788 20.2341 47.712 20.2341 48.86C20.2341 49.9987 20.4814 50.918 20.9761 51.618C21.4707 52.3087 22.1194 52.654 22.9221 52.654C23.5194 52.654 24.0281 52.4813 24.4481 52.136C24.8681 51.7813 25.1901 51.268 25.4141 50.596L29.0681 51.66C28.6201 53.2187 27.8781 54.39 26.8421 55.174C25.8061 55.9487 24.4994 56.336 22.9221 56.336ZM38.2893 56.336C36.9359 56.336 35.7646 56.0327 34.7753 55.426C33.7953 54.8193 33.0346 53.956 32.4933 52.836C31.9613 51.716 31.6953 50.3907 31.6953 48.86C31.6953 47.3293 31.9659 46.004 32.5073 44.884C33.0486 43.7547 33.8139 42.8867 34.8033 42.28C35.7926 41.664 36.9593 41.356 38.3033 41.356C39.8619 41.356 41.1546 41.72 42.1813 42.448C43.2079 43.176 43.9546 44.2493 44.4212 45.668L40.7533 46.9C40.5293 46.3027 40.2073 45.8453 39.7873 45.528C39.3766 45.2013 38.9006 45.038 38.3593 45.038C37.5379 45.038 36.8706 45.388 36.3573 46.088C35.8533 46.788 35.6013 47.712 35.6013 48.86C35.6013 49.9987 35.8486 50.918 36.3433 51.618C36.8379 52.3087 37.4866 52.654 38.2893 52.654C38.8866 52.654 39.3953 52.4813 39.8153 52.136C40.2353 51.7813 40.5573 51.268 40.7813 50.596L44.4353 51.66C43.9873 53.2187 43.2453 54.39 42.2093 55.174C41.1733 55.9487 39.8666 56.336 38.2893 56.336ZM53.6424 56.336C51.6078 56.336 50.0024 55.6733 48.8264 54.348C47.6504 53.0133 47.0624 51.184 47.0624 48.86C47.0624 47.3293 47.3284 46.004 47.8604 44.884C48.4018 43.7547 49.1624 42.8867 50.1424 42.28C51.1318 41.664 52.2984 41.356 53.6424 41.356C54.9771 41.356 56.1298 41.664 57.1004 42.28C58.0804 42.8867 58.8364 43.75 59.3684 44.87C59.9004 45.99 60.1664 47.32 60.1664 48.86C60.1664 50.4 59.9051 51.73 59.3824 52.85C58.8598 53.97 58.1084 54.8333 57.1284 55.44C56.1484 56.0373 54.9864 56.336 53.6424 56.336ZM53.6424 52.64C54.5011 52.64 55.1638 52.3087 55.6304 51.646C56.1064 50.9833 56.3444 50.0547 56.3444 48.86C56.3444 47.656 56.1018 46.7227 55.6164 46.06C55.1404 45.388 54.4824 45.052 53.6424 45.052C52.7931 45.052 52.1258 45.3927 51.6404 46.074C51.1551 46.746 50.9124 47.6747 50.9124 48.86C50.9124 50.036 51.1551 50.96 51.6404 51.632C52.1258 52.304 52.7931 52.64 53.6424 52.64ZM68.5618 56.336C67.0218 56.336 65.8085 55.8507 64.9218 54.88C64.0352 53.9 63.5918 52.556 63.5918 50.848V41.692H67.4418V49.266C67.4418 50.47 67.6285 51.3333 68.0018 51.856C68.3752 52.3787 68.9818 52.64 69.8218 52.64C70.7272 52.64 71.3898 52.374 71.8098 51.842C72.2298 51.3007 72.4398 50.4607 72.4398 49.322V41.692H76.2898V56H72.4398V54.67C72.0105 55.2113 71.4645 55.6267 70.8018 55.916C70.1392 56.196 69.3925 56.336 68.5618 56.336ZM80.5483 56V41.692H84.3983V43.036C84.8556 42.476 85.4063 42.056 86.0503 41.776C86.7036 41.496 87.4456 41.356 88.2763 41.356C89.8349 41.356 91.0529 41.8413 91.9303 42.812C92.8076 43.7733 93.2463 45.1173 93.2463 46.844V56H89.3963V48.426C89.3963 47.2313 89.2096 46.3727 88.8363 45.85C88.4629 45.318 87.8516 45.052 87.0023 45.052C86.1063 45.052 85.4483 45.3227 85.0283 45.864C84.6083 46.396 84.3983 47.2313 84.3983 48.37V56H80.5483ZM101.21 56.336C100.015 56.336 99.1238 56.0187 98.5358 55.384C97.9572 54.74 97.6678 53.7787 97.6678 52.5V45.08H95.6518V41.692H97.6678V37.604L101.49 35.784V41.692H104.64V45.08H101.49V51.926C101.49 52.29 101.569 52.5653 101.728 52.752C101.896 52.9293 102.153 53.018 102.498 53.018C103.198 53.018 103.968 52.8173 104.808 52.416L104.374 55.692C103.935 55.8973 103.455 56.056 102.932 56.168C102.409 56.28 101.835 56.336 101.21 56.336Z" fill="black"/>
</svg>
