<svg width="129" height="14" viewBox="0 0 129 14" fill="none" xmlns="http://www.w3.org/2000/svg">
<path d="M5.30525 13.144C4.47325 13.144 3.72125 12.9573 3.04925 12.584C2.37725 12.2 1.84925 11.6667 1.46525 10.984C1.08125 10.2907 0.88925 9.49067 0.88925 8.584C0.88925 7.688 1.08658 6.89333 1.48125 6.2C1.87592 5.50667 2.41458 4.97333 3.09725 4.6C3.77992 4.22667 4.54258 4.04 5.38525 4.04C6.22792 4.04 6.99058 4.22667 7.67325 4.6C8.35592 4.97333 8.89458 5.50667 9.28925 6.2C9.68392 6.89333 9.88125 7.688 9.88125 8.584C9.88125 9.48 9.67858 10.2747 9.27325 10.968C8.86792 11.6613 8.31325 12.2 7.60925 12.584C6.91592 12.9573 6.14792 13.144 5.30525 13.144ZM5.30525 11.56C5.77458 11.56 6.21192 11.448 6.61725 11.224C7.03325 11 7.36925 10.664 7.62525 10.216C7.88125 9.768 8.00925 9.224 8.00925 8.584C8.00925 7.944 7.88658 7.40533 7.64125 6.968C7.39592 6.52 7.07058 6.184 6.66525 5.96C6.25992 5.736 5.82258 5.624 5.35325 5.624C4.88392 5.624 4.44658 5.736 4.04125 5.96C3.64658 6.184 3.33192 6.52 3.09725 6.968C2.86258 7.40533 2.74525 7.944 2.74525 8.584C2.74525 9.53333 2.98525 10.2693 3.46525 10.792C3.95592 11.304 4.56925 11.56 5.30525 11.56ZM13.5084 5.464C13.775 5.016 14.127 4.66933 14.5644 4.424C15.0124 4.168 15.5404 4.04 16.1484 4.04V5.928H15.6844C14.9697 5.928 14.4257 6.10933 14.0524 6.472C13.6897 6.83467 13.5084 7.464 13.5084 8.36V13H11.6844V4.184H13.5084V5.464ZM21.3733 8.584C21.3733 7.67733 21.5546 6.88267 21.9173 6.2C22.2906 5.50667 22.8026 4.97333 23.4533 4.6C24.1039 4.22667 24.8506 4.04 25.6933 4.04C26.7599 4.04 27.6399 4.296 28.3333 4.808C29.0373 5.30933 29.5119 6.02933 29.7573 6.968H27.7893C27.6293 6.53067 27.3733 6.18933 27.0213 5.944C26.6693 5.69867 26.2266 5.576 25.6933 5.576C24.9466 5.576 24.3493 5.84267 23.9013 6.376C23.4639 6.89867 23.2453 7.63467 23.2453 8.584C23.2453 9.53333 23.4639 10.2747 23.9013 10.808C24.3493 11.3413 24.9466 11.608 25.6933 11.608C26.7493 11.608 27.4479 11.144 27.7893 10.216H29.7573C29.5013 11.112 29.0213 11.8267 28.3173 12.36C27.6133 12.8827 26.7386 13.144 25.6933 13.144C24.8506 13.144 24.1039 12.9573 23.4533 12.584C22.8026 12.2 22.2906 11.6667 21.9173 10.984C21.5546 10.2907 21.3733 9.49067 21.3733 8.584ZM35.399 13.144C34.567 13.144 33.815 12.9573 33.143 12.584C32.471 12.2 31.943 11.6667 31.559 10.984C31.175 10.2907 30.983 9.49067 30.983 8.584C30.983 7.688 31.1803 6.89333 31.575 6.2C31.9697 5.50667 32.5083 4.97333 33.191 4.6C33.8737 4.22667 34.6363 4.04 35.479 4.04C36.3217 4.04 37.0843 4.22667 37.767 4.6C38.4497 4.97333 38.9883 5.50667 39.383 6.2C39.7777 6.89333 39.975 7.688 39.975 8.584C39.975 9.48 39.7723 10.2747 39.367 10.968C38.9617 11.6613 38.407 12.2 37.703 12.584C37.0097 12.9573 36.2417 13.144 35.399 13.144ZM35.399 11.56C35.8683 11.56 36.3057 11.448 36.711 11.224C37.127 11 37.463 10.664 37.719 10.216C37.975 9.768 38.103 9.224 38.103 8.584C38.103 7.944 37.9803 7.40533 37.735 6.968C37.4897 6.52 37.1643 6.184 36.759 5.96C36.3537 5.736 35.9163 5.624 35.447 5.624C34.9777 5.624 34.5403 5.736 34.135 5.96C33.7403 6.184 33.4257 6.52 33.191 6.968C32.9563 7.40533 32.839 7.944 32.839 8.584C32.839 9.53333 33.079 10.2693 33.559 10.792C34.0497 11.304 34.663 11.56 35.399 11.56ZM46.2261 4.04C46.9195 4.04 47.5381 4.184 48.0821 4.472C48.6368 4.76 49.0688 5.18667 49.3781 5.752C49.6875 6.31733 49.8421 7 49.8421 7.8V13H48.0341V8.072C48.0341 7.28267 47.8368 6.68 47.4421 6.264C47.0475 5.83733 46.5088 5.624 45.8261 5.624C45.1435 5.624 44.5995 5.83733 44.1941 6.264C43.7995 6.68 43.6021 7.28267 43.6021 8.072V13H41.7781V4.184H43.6021V5.192C43.9008 4.82933 44.2795 4.54667 44.7381 4.344C45.2075 4.14133 45.7035 4.04 46.2261 4.04ZM54.2968 5.672V10.552C54.2968 10.8827 54.3714 11.1227 54.5208 11.272C54.6808 11.4107 54.9474 11.48 55.3208 11.48H56.4408V13H55.0008C54.1794 13 53.5501 12.808 53.1128 12.424C52.6754 12.04 52.4568 11.416 52.4568 10.552V5.672H51.4168V4.184H52.4568V1.992H54.2968V4.184H56.4408V5.672H54.2968ZM59.0499 3.016C58.7192 3.016 58.4419 2.904 58.2179 2.68C57.9939 2.456 57.8819 2.17867 57.8819 1.848C57.8819 1.51733 57.9939 1.24 58.2179 1.016C58.4419 0.791999 58.7192 0.679999 59.0499 0.679999C59.3699 0.679999 59.6419 0.791999 59.8659 1.016C60.0899 1.24 60.2019 1.51733 60.2019 1.848C60.2019 2.17867 60.0899 2.456 59.8659 2.68C59.6419 2.904 59.3699 3.016 59.0499 3.016ZM59.9459 4.184V13H58.1219V4.184H59.9459ZM66.7886 4.04C67.482 4.04 68.1006 4.184 68.6446 4.472C69.1993 4.76 69.6313 5.18667 69.9406 5.752C70.25 6.31733 70.4046 7 70.4046 7.8V13H68.5966V8.072C68.5966 7.28267 68.3993 6.68 68.0046 6.264C67.61 5.83733 67.0713 5.624 66.3886 5.624C65.706 5.624 65.162 5.83733 64.7566 6.264C64.362 6.68 64.1646 7.28267 64.1646 8.072V13H62.3406V4.184H64.1646V5.192C64.4633 4.82933 64.842 4.54667 65.3006 4.344C65.77 4.14133 66.266 4.04 66.7886 4.04ZM80.7153 4.184V13H78.8913V11.96C78.6033 12.3227 78.2246 12.6107 77.7553 12.824C77.2966 13.0267 76.8059 13.128 76.2833 13.128C75.5899 13.128 74.9659 12.984 74.4113 12.696C73.8673 12.408 73.4353 11.9813 73.1153 11.416C72.8059 10.8507 72.6513 10.168 72.6513 9.368V4.184H74.4593V9.096C74.4593 9.88533 74.6566 10.4933 75.0513 10.92C75.4459 11.336 75.9846 11.544 76.6673 11.544C77.3499 11.544 77.8886 11.336 78.2833 10.92C78.6886 10.4933 78.8913 9.88533 78.8913 9.096V4.184H80.7153ZM91.2019 8.376C91.2019 8.70667 91.1805 9.00533 91.1379 9.272H84.4019C84.4552 9.976 84.7165 10.5413 85.1859 10.968C85.6552 11.3947 86.2312 11.608 86.9139 11.608C87.8952 11.608 88.5885 11.1973 88.9939 10.376H90.9619C90.6952 11.1867 90.2099 11.8533 89.5059 12.376C88.8125 12.888 87.9485 13.144 86.9139 13.144C86.0712 13.144 85.3139 12.9573 84.6419 12.584C83.9805 12.2 83.4579 11.6667 83.0739 10.984C82.7005 10.2907 82.5139 9.49067 82.5139 8.584C82.5139 7.67733 82.6952 6.88267 83.0579 6.2C83.4312 5.50667 83.9485 4.97333 84.6099 4.6C85.2819 4.22667 86.0499 4.04 86.9139 4.04C87.7459 4.04 88.4872 4.22133 89.1379 4.584C89.7885 4.94667 90.2952 5.45867 90.6579 6.12C91.0205 6.77067 91.2019 7.52267 91.2019 8.376ZM89.2979 7.8C89.2872 7.128 89.0472 6.58933 88.5779 6.184C88.1085 5.77867 87.5272 5.576 86.8339 5.576C86.2045 5.576 85.6659 5.77867 85.2179 6.184C84.7699 6.57867 84.5032 7.11733 84.4179 7.8H89.2979ZM108.993 4.184L106.257 13H104.337L102.561 6.488L100.785 13H98.8651L96.1131 4.184H97.9691L99.8091 11.272L101.681 4.184H103.585L105.377 11.24L107.201 4.184H108.993ZM111.284 3.016C110.954 3.016 110.676 2.904 110.452 2.68C110.228 2.456 110.116 2.17867 110.116 1.848C110.116 1.51733 110.228 1.24 110.452 1.016C110.676 0.791999 110.954 0.679999 111.284 0.679999C111.604 0.679999 111.876 0.791999 112.1 1.016C112.324 1.24 112.436 1.51733 112.436 1.848C112.436 2.17867 112.324 2.456 112.1 2.68C111.876 2.904 111.604 3.016 111.284 3.016ZM112.18 4.184V13H110.356V4.184H112.18ZM116.703 5.672V10.552C116.703 10.8827 116.778 11.1227 116.927 11.272C117.087 11.4107 117.354 11.48 117.727 11.48H118.847V13H117.407C116.586 13 115.956 12.808 115.519 12.424C115.082 12.04 114.863 11.416 114.863 10.552V5.672H113.823V4.184H114.863V1.992H116.703V4.184H118.847V5.672H116.703ZM125.088 4.04C125.76 4.04 126.357 4.184 126.88 4.472C127.413 4.76 127.829 5.18667 128.128 5.752C128.437 6.31733 128.592 7 128.592 7.8V13H126.784V8.072C126.784 7.28267 126.587 6.68 126.192 6.264C125.797 5.83733 125.259 5.624 124.576 5.624C123.893 5.624 123.349 5.83733 122.944 6.264C122.549 6.68 122.352 7.28267 122.352 8.072V13H120.528V1.16H122.352V5.208C122.661 4.83467 123.051 4.54667 123.52 4.344C124 4.14133 124.523 4.04 125.088 4.04Z" fill="#909090"/>
</svg>
